<svg width="70" height="70" viewBox="0 0 70 70" fill="none" xmlns="http://www.w3.org/2000/svg">
<circle cx="35" cy="35" r="35" fill="white"/>
<path d="M24.155 22.0234L26.8199 29.5799H26.9251L29.59 22.0234H30.7296L27.4335 31H26.3115L23.0154 22.0234H24.155ZM34.0959 31.1403C33.4881 31.1403 32.9548 30.9956 32.496 30.7063C32.0402 30.417 31.6837 30.0123 31.4266 29.4922C31.1723 28.9721 31.0452 28.3643 31.0452 27.6688C31.0452 26.9675 31.1723 26.3554 31.4266 25.8323C31.6837 25.3093 32.0402 24.9031 32.496 24.6138C32.9548 24.3245 33.4881 24.1799 34.0959 24.1799C34.7037 24.1799 35.2355 24.3245 35.6913 24.6138C36.1501 24.9031 36.5066 25.3093 36.7608 25.8323C37.018 26.3554 37.1465 26.9675 37.1465 27.6688C37.1465 28.3643 37.018 28.9721 36.7608 29.4922C36.5066 30.0123 36.1501 30.417 35.6913 30.7063C35.2355 30.9956 34.7037 31.1403 34.0959 31.1403ZM34.0959 30.211C34.5576 30.211 34.9374 30.0927 35.2355 29.856C35.5335 29.6193 35.7542 29.3081 35.8973 28.9224C36.0405 28.5367 36.1121 28.1188 36.1121 27.6688C36.1121 27.2188 36.0405 26.7995 35.8973 26.4109C35.7542 26.0222 35.5335 25.7081 35.2355 25.4685C34.9374 25.2289 34.5576 25.1091 34.0959 25.1091C33.6342 25.1091 33.2543 25.2289 32.9563 25.4685C32.6582 25.7081 32.4376 26.0222 32.2944 26.4109C32.1512 26.7995 32.0796 27.2188 32.0796 27.6688C32.0796 28.1188 32.1512 28.5367 32.2944 28.9224C32.4376 29.3081 32.6582 29.6193 32.9563 29.856C33.2543 30.0927 33.6342 30.211 34.0959 30.211ZM38.7255 31V24.2675H39.76V31H38.7255ZM39.2515 23.1455C39.0499 23.1455 38.876 23.0768 38.7299 22.9394C38.5867 22.8021 38.5152 22.637 38.5152 22.4442C38.5152 22.2513 38.5867 22.0862 38.7299 21.9489C38.876 21.8115 39.0499 21.7429 39.2515 21.7429C39.4531 21.7429 39.6255 21.8115 39.7687 21.9489C39.9148 22.0862 39.9879 22.2513 39.9879 22.4442C39.9879 22.637 39.9148 22.8021 39.7687 22.9394C39.6255 23.0768 39.4531 23.1455 39.2515 23.1455ZM41.6546 31V24.2675H42.6539V25.2844H42.724C42.8468 24.9513 43.0689 24.681 43.3903 24.4735C43.7117 24.2661 44.074 24.1623 44.4773 24.1623C44.5533 24.1623 44.6482 24.1638 44.7622 24.1667C44.8762 24.1696 44.9624 24.174 45.0208 24.1799V25.2318C44.9857 25.2231 44.9054 25.2099 44.7797 25.1924C44.657 25.1719 44.527 25.1617 44.3896 25.1617C44.0624 25.1617 43.7702 25.2304 43.513 25.3677C43.2588 25.5021 43.0572 25.6891 42.9081 25.9287C42.762 26.1654 42.689 26.4357 42.689 26.7396V31H41.6546ZM12.2537 34.0234V43H11.2193V34.0234H12.2537ZM16.971 43.1403C16.3223 43.1403 15.7628 42.9971 15.2923 42.7107C14.8248 42.4214 14.4639 42.0182 14.2097 41.501C13.9584 40.9808 13.8327 40.376 13.8327 39.6864C13.8327 38.9968 13.9584 38.389 14.2097 37.863C14.4639 37.3341 14.8175 36.9221 15.2704 36.6269C15.7262 36.3289 16.2581 36.1799 16.8658 36.1799C17.2165 36.1799 17.5628 36.2383 17.9046 36.3552C18.2465 36.4721 18.5577 36.662 18.8383 36.925C19.1188 37.1851 19.3423 37.5299 19.5089 37.9594C19.6754 38.389 19.7587 38.9179 19.7587 39.5461V39.9844H14.5691V39.0903H18.7068C18.7068 38.7104 18.6308 38.3714 18.4788 38.0734C18.3298 37.7753 18.1165 37.5401 17.8389 37.3677C17.5642 37.1953 17.2399 37.1091 16.8658 37.1091C16.4538 37.1091 16.0973 37.2114 15.7964 37.4159C15.4983 37.6175 15.2689 37.8805 15.1082 38.2049C14.9475 38.5292 14.8671 38.8769 14.8671 39.2481V39.8442C14.8671 40.3526 14.9548 40.7836 15.1301 41.1372C15.3084 41.4878 15.5553 41.7552 15.8709 41.9393C16.1865 42.1205 16.5532 42.211 16.971 42.211C17.2428 42.211 17.4883 42.1731 17.7074 42.0971C17.9295 42.0182 18.1209 41.9013 18.2816 41.7464C18.4423 41.5886 18.5665 41.3929 18.6542 41.1591L19.6535 41.4396C19.5483 41.7786 19.3715 42.0766 19.1232 42.3338C18.8748 42.588 18.568 42.7867 18.2027 42.9299C17.8374 43.0701 17.4269 43.1403 16.971 43.1403ZM24.8037 45.5247V36.2675H25.803V37.337H25.9258C26.0017 37.2201 26.1069 37.0711 26.2413 36.8899C26.3787 36.7058 26.5745 36.5422 26.8287 36.399C27.0858 36.2529 27.4335 36.1799 27.8719 36.1799C28.4387 36.1799 28.9384 36.3216 29.3709 36.605C29.8033 36.8885 30.1408 37.2903 30.3834 37.8104C30.6259 38.3305 30.7472 38.9442 30.7472 39.6513C30.7472 40.3643 30.6259 40.9823 30.3834 41.5054C30.1408 42.0255 29.8048 42.4287 29.3753 42.7151C28.9457 42.9985 28.4504 43.1403 27.8894 43.1403C27.4569 43.1403 27.1107 43.0687 26.8506 42.9255C26.5905 42.7794 26.3904 42.6143 26.2501 42.4302C26.1098 42.2432 26.0017 42.0883 25.9258 41.9656H25.8381V45.5247H24.8037ZM25.8206 39.6338C25.8206 40.1422 25.8951 40.5907 26.0441 40.9794C26.1931 41.3651 26.4108 41.6675 26.6972 41.8867C26.9835 42.1029 27.3342 42.211 27.7491 42.211C28.1816 42.211 28.5425 42.0971 28.8318 41.8692C29.124 41.6383 29.3431 41.3286 29.4892 40.9399C29.6383 40.5484 29.7128 40.113 29.7128 39.6338C29.7128 39.1604 29.6397 38.7338 29.4936 38.3539C29.3504 37.9711 29.1327 37.6687 28.8405 37.4466C28.5512 37.2216 28.1874 37.1091 27.7491 37.1091C27.3283 37.1091 26.9748 37.2157 26.6884 37.4291C26.4021 37.6394 26.1858 37.9346 26.0397 38.3144C25.8936 38.6914 25.8206 39.1312 25.8206 39.6338ZM32.3251 43V36.2675H33.3245V37.2844H33.3946C33.5173 36.9513 33.7394 36.681 34.0608 36.4735C34.3822 36.2661 34.7446 36.1623 35.1478 36.1623C35.2238 36.1623 35.3188 36.1638 35.4327 36.1667C35.5467 36.1696 35.6329 36.174 35.6913 36.1799V37.2318C35.6563 37.2231 35.5759 37.2099 35.4503 37.1924C35.3275 37.1719 35.1975 37.1617 35.0602 37.1617C34.7329 37.1617 34.4407 37.2304 34.1835 37.3677C33.9293 37.5021 33.7277 37.6891 33.5787 37.9287C33.4326 38.1654 33.3595 38.4357 33.3595 38.7396V43H32.3251ZM39.4477 43.1403C38.8399 43.1403 38.3066 42.9956 37.8478 42.7063C37.392 42.417 37.0355 42.0123 36.7783 41.4922C36.5241 40.9721 36.397 40.3643 36.397 39.6688C36.397 38.9675 36.5241 38.3554 36.7783 37.8323C37.0355 37.3093 37.392 36.9031 37.8478 36.6138C38.3066 36.3245 38.8399 36.1799 39.4477 36.1799C40.0555 36.1799 40.5873 36.3245 41.0431 36.6138C41.5019 36.9031 41.8584 37.3093 42.1126 37.8323C42.3697 38.3554 42.4983 38.9675 42.4983 39.6688C42.4983 40.3643 42.3697 40.9721 42.1126 41.4922C41.8584 42.0123 41.5019 42.417 41.0431 42.7063C40.5873 42.9956 40.0555 43.1403 39.4477 43.1403ZM39.4477 42.211C39.9094 42.211 40.2892 42.0927 40.5873 41.856C40.8853 41.6193 41.1059 41.3081 41.2491 40.9224C41.3923 40.5367 41.4639 40.1188 41.4639 39.6688C41.4639 39.2188 41.3923 38.7995 41.2491 38.4109C41.1059 38.0222 40.8853 37.7081 40.5873 37.4685C40.2892 37.2289 39.9094 37.1091 39.4477 37.1091C38.986 37.1091 38.6061 37.2289 38.3081 37.4685C38.01 37.7081 37.7894 38.0222 37.6462 38.4109C37.503 38.7995 37.4314 39.2188 37.4314 39.6688C37.4314 40.1188 37.503 40.5367 37.6462 40.9224C37.7894 41.3081 38.01 41.6193 38.3081 41.856C38.6061 42.0927 38.986 42.211 39.4477 42.211ZM44.0773 36.2675H45.1117V43.4909C45.1117 43.9058 45.0402 44.2653 44.897 44.5692C44.7567 44.8731 44.5434 45.1083 44.257 45.2748C43.9736 45.4414 43.6156 45.5247 43.1832 45.5247C43.1481 45.5247 43.113 45.5247 43.078 45.5247C43.0429 45.5247 43.0079 45.5247 42.9728 45.5247V44.5604C43.0079 44.5604 43.04 44.5604 43.0692 44.5604C43.0984 44.5604 43.1306 44.5604 43.1656 44.5604C43.4812 44.5604 43.7121 44.4669 43.8582 44.2799C44.0043 44.0958 44.0773 43.8328 44.0773 43.4909V36.2675ZM44.5858 35.1455C44.3842 35.1455 44.2103 35.0768 44.0642 34.9394C43.921 34.8021 43.8494 34.637 43.8494 34.4442C43.8494 34.2513 43.921 34.0862 44.0642 33.9489C44.2103 33.8115 44.3842 33.7429 44.5858 33.7429C44.7874 33.7429 44.9598 33.8115 45.103 33.9489C45.2491 34.0862 45.3221 34.2513 45.3221 34.4442C45.3221 34.637 45.2491 34.8021 45.103 34.9394C44.9598 35.0768 44.7874 35.1455 44.5858 35.1455ZM49.8291 43.1403C49.1804 43.1403 48.6208 42.9971 48.1503 42.7107C47.6828 42.4214 47.3219 42.0182 47.0677 41.501C46.8164 40.9808 46.6908 40.376 46.6908 39.6864C46.6908 38.9968 46.8164 38.389 47.0677 37.863C47.3219 37.3341 47.6755 36.9221 48.1284 36.6269C48.5843 36.3289 49.1161 36.1799 49.7239 36.1799C50.0745 36.1799 50.4208 36.2383 50.7627 36.3552C51.1046 36.4721 51.4158 36.662 51.6963 36.925C51.9768 37.1851 52.2003 37.5299 52.3669 37.9594C52.5335 38.389 52.6167 38.9179 52.6167 39.5461V39.9844H47.4271V39.0903H51.5648C51.5648 38.7104 51.4888 38.3714 51.3369 38.0734C51.1878 37.7753 50.9745 37.5401 50.6969 37.3677C50.4223 37.1953 50.0979 37.1091 49.7239 37.1091C49.3119 37.1091 48.9554 37.2114 48.6544 37.4159C48.3564 37.6175 48.127 37.8805 47.9663 38.2049C47.8055 38.5292 47.7252 38.8769 47.7252 39.2481V39.8442C47.7252 40.3526 47.8128 40.7836 47.9882 41.1372C48.1664 41.4878 48.4133 41.7552 48.7289 41.9393C49.0445 42.1205 49.4112 42.211 49.8291 42.211C50.1008 42.211 50.3463 42.1731 50.5654 42.0971C50.7875 42.0182 50.9789 41.9013 51.1396 41.7464C51.3003 41.5886 51.4245 41.3929 51.5122 41.1591L52.5115 41.4396C52.4064 41.7786 52.2296 42.0766 51.9812 42.3338C51.7328 42.588 51.426 42.7867 51.0607 42.9299C50.6955 43.0701 50.2849 43.1403 49.8291 43.1403ZM57.1182 36.2675V37.1442H53.6292V36.2675H57.1182ZM54.6461 34.6545H55.6805V41.0714C55.6805 41.3636 55.7229 41.5828 55.8076 41.7289C55.8953 41.8721 56.0064 41.9685 56.1408 42.0182C56.2781 42.0649 56.4227 42.0883 56.5747 42.0883C56.6887 42.0883 56.7822 42.0825 56.8552 42.0708C56.9283 42.0562 56.9867 42.0445 57.0305 42.0357L57.2409 42.9649C57.1708 42.9912 57.0729 43.0175 56.9473 43.0438C56.8216 43.0731 56.6624 43.0877 56.4695 43.0877C56.1773 43.0877 55.8909 43.0248 55.6104 42.8992C55.3328 42.7735 55.102 42.5821 54.9179 42.325C54.7367 42.0679 54.6461 41.7435 54.6461 41.3519V34.6545Z" fill="black"/>
</svg>
