<svg width="89" height="14" viewBox="0 0 89 14" fill="none" xmlns="http://www.w3.org/2000/svg">
<path d="M0.322266 13.6387C1.13607 13.5801 1.66341 13.4596 1.9043 13.2773C2.14518 13.0885 2.26562 12.6068 2.26562 11.832V2.93555C2.26562 2.19987 2.14518 1.72786 1.9043 1.51953C1.66341 1.30469 1.13607 1.17773 0.322266 1.13867V0.767578H6.24023V1.13867C5.42643 1.17773 4.89909 1.30469 4.6582 1.51953C4.41732 1.72786 4.29688 2.19987 4.29688 2.93555V11.832C4.29688 12.6068 4.41732 13.0885 4.6582 13.2773C4.89909 13.4596 5.42643 13.5801 6.24023 13.6387V14H0.322266V13.6387Z" fill="#2A2A2A"/>
<path d="M9.05078 0.767578H20.3496L20.457 4.16602H19.9785C19.7441 3.09831 19.4447 2.40495 19.0801 2.08594C18.722 1.76042 17.9635 1.59766 16.8047 1.59766H15.6914V11.832C15.6914 12.6068 15.8118 13.0885 16.0527 13.2773C16.2936 13.4596 16.821 13.5801 17.6348 13.6387V14H11.8047V13.6387C12.651 13.5736 13.1784 13.4336 13.3867 13.2188C13.5951 13.0039 13.6992 12.4635 13.6992 11.5977V1.59766H12.5859C11.4792 1.59766 10.724 1.75716 10.3203 2.07617C9.92318 2.39518 9.6237 3.0918 9.42188 4.16602H8.93359L9.05078 0.767578Z" fill="#2A2A2A"/>
<path d="M30.2109 8.86328L27.8965 3.35547L25.6113 8.86328H30.2109ZM21.5781 14V13.6387C22.0924 13.5801 22.4766 13.3848 22.7305 13.0527C22.9909 12.7207 23.4336 11.819 24.0586 10.3477L28.2285 0.533203H28.6191L33.5996 11.8711C33.9316 12.6263 34.1953 13.0951 34.3906 13.2773C34.5924 13.4531 34.9277 13.5736 35.3965 13.6387V14H30.3086V13.6387C30.8945 13.5866 31.2721 13.5247 31.4414 13.4531C31.6107 13.375 31.6953 13.1895 31.6953 12.8965C31.6953 12.7988 31.6628 12.6263 31.5977 12.3789C31.5326 12.1315 31.4414 11.8711 31.3242 11.5977L30.4941 9.67383H25.2598C24.7389 10.9824 24.4264 11.7832 24.3223 12.0762C24.2246 12.3626 24.1758 12.5905 24.1758 12.7598C24.1758 13.0983 24.3125 13.3327 24.5859 13.4629C24.7552 13.541 25.0742 13.5996 25.543 13.6387V14H21.5781Z" fill="#2A2A2A"/>
<path d="M46.3906 4.40039C46.3906 3.17643 45.8633 2.33659 44.8086 1.88086C44.2422 1.63346 43.526 1.50977 42.6602 1.50977C42.25 1.50977 41.9961 1.55208 41.8984 1.63672C41.8073 1.71484 41.7617 1.89388 41.7617 2.17383V7.38867C42.1198 7.42122 42.3542 7.44076 42.4648 7.44727C42.5755 7.45378 42.6829 7.45703 42.7871 7.45703C43.7051 7.45703 44.4277 7.32682 44.9551 7.06641C45.9121 6.59115 46.3906 5.70247 46.3906 4.40039ZM38.0605 13.6387C38.8223 13.5671 39.2975 13.4173 39.4863 13.1895C39.6751 12.9551 39.7695 12.4245 39.7695 11.5977V2.93555C39.7695 2.23893 39.6621 1.77995 39.4473 1.55859C39.2389 1.33724 38.7767 1.19727 38.0605 1.13867V0.767578H43.334C45.0267 0.767578 46.3223 1.09635 47.2207 1.75391C48.1191 2.41146 48.5684 3.27734 48.5684 4.35156C48.5684 5.71224 48.0703 6.69857 47.0742 7.31055C46.0781 7.92253 44.8314 8.22852 43.334 8.22852C43.1191 8.22852 42.8424 8.22526 42.5039 8.21875C42.1719 8.20573 41.9245 8.19922 41.7617 8.19922V11.832C41.7617 12.5872 41.8757 13.0625 42.1035 13.2578C42.3379 13.4531 42.8555 13.5801 43.6562 13.6387V14H38.0605V13.6387Z" fill="#2A2A2A"/>
<path d="M51.1934 13.6387C52.0072 13.5801 52.5345 13.4596 52.7754 13.2773C53.0163 13.0885 53.1367 12.6068 53.1367 11.832V2.93555C53.1367 2.19987 53.0163 1.72786 52.7754 1.51953C52.5345 1.30469 52.0072 1.17773 51.1934 1.13867V0.767578H57.1113V1.13867C56.2975 1.17773 55.7702 1.30469 55.5293 1.51953C55.2884 1.72786 55.168 2.19987 55.168 2.93555V11.832C55.168 12.6068 55.2884 13.0885 55.5293 13.2773C55.7702 13.4596 56.2975 13.5801 57.1113 13.6387V14H51.1934V13.6387Z" fill="#2A2A2A"/>
<path d="M63.5059 7.1543C64.9447 7.10221 65.9733 6.95247 66.5918 6.70508C67.653 6.26888 68.1836 5.44857 68.1836 4.24414C68.1836 3.08529 67.7083 2.29427 66.7578 1.87109C66.25 1.64323 65.5762 1.5293 64.7363 1.5293C64.1699 1.5293 63.8216 1.57161 63.6914 1.65625C63.5677 1.73438 63.5059 1.92318 63.5059 2.22266V7.1543ZM59.7559 13.6387C60.5241 13.5671 61.0026 13.4173 61.1914 13.1895C61.3802 12.9616 61.4746 12.431 61.4746 11.5977V2.93555C61.4746 2.23242 61.3672 1.77344 61.1523 1.55859C60.944 1.33724 60.4785 1.19727 59.7559 1.13867V0.767578H65.293C66.4453 0.767578 67.4056 0.914062 68.1738 1.20703C69.6322 1.76042 70.3613 2.7793 70.3613 4.26367C70.3613 5.25977 70.0358 6.02474 69.3848 6.55859C68.7402 7.09245 67.8613 7.44401 66.748 7.61328L70.8691 12.6816C71.123 12.9941 71.377 13.222 71.6309 13.3652C71.8848 13.5085 72.2103 13.5996 72.6074 13.6387V14H69.3848L64.6191 7.84766L63.5059 7.89648V11.832C63.5059 12.5742 63.6165 13.0462 63.8379 13.248C64.0658 13.4434 64.5573 13.5736 65.3125 13.6387V14H59.7559V13.6387Z" fill="#2A2A2A"/>
<path d="M83.7969 8.86328L81.4824 3.35547L79.1973 8.86328H83.7969ZM75.1641 14V13.6387C75.6784 13.5801 76.0625 13.3848 76.3164 13.0527C76.5768 12.7207 77.0195 11.819 77.6445 10.3477L81.8145 0.533203H82.2051L87.1855 11.8711C87.5176 12.6263 87.7812 13.0951 87.9766 13.2773C88.1784 13.4531 88.5137 13.5736 88.9824 13.6387V14H83.8945V13.6387C84.4805 13.5866 84.8581 13.5247 85.0273 13.4531C85.1966 13.375 85.2812 13.1895 85.2812 12.8965C85.2812 12.7988 85.2487 12.6263 85.1836 12.3789C85.1185 12.1315 85.0273 11.8711 84.9102 11.5977L84.0801 9.67383H78.8457C78.3249 10.9824 78.0124 11.7832 77.9082 12.0762C77.8105 12.3626 77.7617 12.5905 77.7617 12.7598C77.7617 13.0983 77.8984 13.3327 78.1719 13.4629C78.3411 13.541 78.6602 13.5996 79.1289 13.6387V14H75.1641Z" fill="#2A2A2A"/>
</svg>
