<svg width="12" height="12" viewBox="0 0 12 12" fill="none" xmlns="http://www.w3.org/2000/svg">
<path fill-rule="evenodd" clip-rule="evenodd" d="M11.043 10.8417C10.9156 10.9691 10.709 10.9691 10.5817 10.8417L0.432 0.692022C0.304602 0.564625 0.304602 0.358072 0.432 0.230674C0.559397 0.103277 0.76595 0.103277 0.893348 0.230674L11.043 10.3803C11.1704 10.5077 11.1704 10.7143 11.043 10.8417Z" fill="white"/>
<path fill-rule="evenodd" clip-rule="evenodd" d="M0.260107 11.0328C0.132709 10.9054 0.132728 10.6988 0.260107 10.5714L10.4098 0.421776C10.5372 0.294379 10.7437 0.294379 10.8711 0.421776C10.9985 0.549174 10.9985 0.755727 10.8711 0.883125L0.721455 11.0328C0.594077 11.1602 0.387504 11.1602 0.260107 11.0328Z" fill="white"/>
</svg>
