<svg width="23" height="11" viewBox="0 0 23 11" fill="none" xmlns="http://www.w3.org/2000/svg">
<path fill-rule="evenodd" clip-rule="evenodd" d="M23 0.5C23 0.776142 22.7761 1 22.5 1H0.5C0.223858 1 0 0.776142 0 0.5V0.5C0 0.223858 0.223858 0 0.5 0H22.5C22.7761 0 23 0.223858 23 0.5V0.5Z" fill="white"/>
<path fill-rule="evenodd" clip-rule="evenodd" d="M23 5.5C23 5.77614 22.7761 6 22.5 6H0.5C0.223858 6 0 5.77614 0 5.5V5.5C0 5.22386 0.223858 5 0.5 5H22.5C22.7761 5 23 5.22386 23 5.5V5.5Z" fill="white"/>
<path fill-rule="evenodd" clip-rule="evenodd" d="M23 10.5C23 10.7761 22.7761 11 22.5 11H0.5C0.223858 11 0 10.7761 0 10.5V10.5C0 10.2239 0.223858 10 0.5 10H22.5C22.7761 10 23 10.2239 23 10.5V10.5Z" fill="white"/>
</svg>
