<svg width="22" height="21" viewBox="0 0 22 21" fill="none" xmlns="http://www.w3.org/2000/svg">
<g clip-path="url(#clip0_915_49541)">
<path d="M11 5.25C11 6.64238 10.4469 7.97774 9.46231 8.96231C8.47774 9.94687 7.14239 10.5 5.75 10.5C5.06056 10.5 4.37787 10.3642 3.74091 10.1004C3.10395 9.83652 2.5252 9.44981 2.03769 8.96231C1.55018 8.4748 1.16347 7.89604 0.899632 7.25908C0.635795 6.62213 0.5 5.93944 0.5 5.25C0.5 4.56056 0.635795 3.87787 0.899632 3.24091C1.16347 2.60395 1.55018 2.0252 2.03769 1.53769C2.5252 1.05018 3.10395 0.663469 3.74091 0.399632C4.37787 0.135795 5.06056 -2.77947e-09 5.75 0C7.14239 3.36804e-08 8.47774 0.553123 9.46231 1.53769C10.4469 2.52225 11 3.85761 11 5.25Z" fill="url(#paint0_linear_915_49541)"/>
<path d="M21.5 5.25C21.5 5.93944 21.3642 6.62213 21.1004 7.25908C20.8365 7.89604 20.4498 8.4748 19.9623 8.96231C19.4748 9.44981 18.896 9.83652 18.2591 10.1004C17.6221 10.3642 16.9394 10.5 16.25 10.5C15.5606 10.5 14.8779 10.3642 14.2409 10.1004C13.604 9.83652 13.0252 9.44981 12.5377 8.96231C12.0502 8.4748 11.6635 7.89604 11.3996 7.25908C11.1358 6.62213 11 5.93944 11 5.25C11 3.85761 11.5531 2.52225 12.5377 1.53769C13.5223 0.553123 14.8576 0 16.25 0C17.6424 0 18.9777 0.553123 19.9623 1.53769C20.9469 2.52225 21.5 3.85761 21.5 5.25Z" fill="url(#paint1_linear_915_49541)"/>
<path d="M5.75 8.46325C5.75 9.85564 6.30312 11.191 7.28769 12.1756C8.27226 13.1601 9.60761 13.7133 11 13.7133C12.3924 13.7133 13.7277 13.1601 14.7123 12.1756C15.6969 11.191 16.25 9.85564 16.25 8.46325C16.25 7.07087 15.6969 5.73551 14.7123 4.75095C13.7277 3.76638 12.3924 3.21326 11 3.21326C9.60761 3.21326 8.27226 3.76638 7.28769 4.75095C6.30312 5.73551 5.75 7.07087 5.75 8.46325Z" fill="url(#paint2_linear_915_49541)"/>
<path d="M21.5 5.25V15.75C21.5 17.1424 20.9468 18.4777 19.9623 19.4623C18.9777 20.4469 17.6424 21 16.25 21H13.7775C12.3851 21 11.0497 20.4469 10.0652 19.4623C9.0806 18.4777 8.52747 17.1424 8.52747 15.75C8.52747 14.3576 9.0806 13.0222 10.0652 12.0377C11.0497 11.0531 12.3851 10.5 13.7775 10.5H16.25C16.9394 10.5 17.6221 10.3642 18.2591 10.1004C18.896 9.83653 19.4748 9.44982 19.9623 8.96231C20.4498 8.4748 20.8365 7.89605 21.1003 7.25909C21.3642 6.62213 21.5 5.93944 21.5 5.25Z" fill="url(#paint3_linear_915_49541)"/>
<path d="M0.5 5.25V15.75C0.5 17.1424 1.05314 18.4777 2.0377 19.4623C3.02227 20.4469 4.35761 21 5.75 21H8.2225C9.61489 21 10.9502 20.4469 11.9348 19.4623C12.9194 18.4777 13.4725 17.1424 13.4725 15.75C13.4725 14.3576 12.9194 13.0222 11.9348 12.0377C10.9502 11.0531 9.61489 10.5 8.2225 10.5H5.75C5.06056 10.5 4.37787 10.3642 3.74091 10.1004C3.10395 9.83653 2.5252 9.44982 2.03769 8.96231C1.55018 8.4748 1.16347 7.89605 0.899632 7.25909C0.635795 6.62213 0.5 5.93944 0.5 5.25Z" fill="url(#paint4_linear_915_49541)"/>
</g>
<defs>
<linearGradient id="paint0_linear_915_49541" x1="5.75" y1="0" x2="5.75" y2="10.5" gradientUnits="userSpaceOnUse">
<stop stop-color="#3798FA"/>
<stop offset="1" stop-color="#094CA9"/>
</linearGradient>
<linearGradient id="paint1_linear_915_49541" x1="16.25" y1="0" x2="16.25" y2="10.5" gradientUnits="userSpaceOnUse">
<stop stop-color="#3798FA"/>
<stop offset="1" stop-color="#094CA9"/>
</linearGradient>
<linearGradient id="paint2_linear_915_49541" x1="11" y1="5.24995" x2="11" y2="11.2948" gradientUnits="userSpaceOnUse">
<stop stop-color="#50C1FC"/>
<stop offset="1" stop-color="#2D9AED"/>
</linearGradient>
<linearGradient id="paint3_linear_915_49541" x1="12.6545" y1="20.5846" x2="15.3714" y2="11.5369" gradientUnits="userSpaceOnUse">
<stop stop-color="#208CE8"/>
<stop offset="1" stop-color="#50C1FC"/>
</linearGradient>
<linearGradient id="paint4_linear_915_49541" x1="2.0377" y1="19.4623" x2="7.28598" y2="9.91868" gradientUnits="userSpaceOnUse">
<stop stop-color="#0A4EAA"/>
<stop offset="1" stop-color="#308CEE"/>
</linearGradient>
<clipPath id="clip0_915_49541">
<rect width="21" height="21" fill="white" transform="translate(0.5)"/>
</clipPath>
</defs>
</svg>
