<svg width="29" height="28" viewBox="0 0 29 28" fill="none" xmlns="http://www.w3.org/2000/svg">
<path d="M28.4999 12.328C28.5042 13.3962 28.297 14.4548 27.8902 15.4433C27.4834 16.4317 26.885 17.3305 26.1292 18.0884C25.3735 18.8463 24.4751 19.4483 23.4856 19.86C22.4961 20.2717 21.4348 20.4851 20.3624 20.4879H19.8888C19.6033 20.4879 19.3295 20.3749 19.1276 20.1739C18.9258 19.9728 18.8124 19.7 18.8124 19.4156C18.8124 19.1313 18.9258 18.8585 19.1276 18.6574C19.3295 18.4563 19.6033 18.3434 19.8888 18.3434H20.3624C21.1483 18.3434 21.9265 18.1892 22.6526 17.8896C23.3788 17.59 24.0385 17.1508 24.5942 16.5972C25.15 16.0436 25.5908 15.3864 25.8916 14.6631C26.1923 13.9397 26.3471 13.1645 26.3471 12.3816V11.9634C26.2489 10.7621 25.7836 9.61972 25.0138 8.68993C24.244 7.76013 23.2067 7.0876 22.0416 6.76289C21.8955 6.72273 21.7596 6.65231 21.6427 6.55622C21.5259 6.46014 21.4307 6.34056 21.3634 6.20531C20.6803 4.77437 19.5282 3.61801 18.0969 2.92684C16.6656 2.23566 15.0406 2.05094 13.4898 2.40313C11.939 2.75531 10.5549 3.62337 9.56577 4.86422C8.57662 6.10506 8.04142 7.64462 8.0484 9.2291C8.0484 9.37922 8.0484 9.52934 8.0484 9.67945C8.06619 9.83997 8.04736 10.0024 7.9933 10.1547C7.93925 10.3069 7.85138 10.445 7.73624 10.5587C7.62114 10.6715 7.48204 10.757 7.32926 10.809C7.17647 10.861 7.0139 10.878 6.8536 10.8589L6.4338 10.8375C5.81464 10.8359 5.20468 10.9868 4.6582 11.2768C4.11172 11.5668 3.64566 11.9868 3.30149 12.4995C2.83927 13.1887 2.61623 14.0097 2.66641 14.8371C2.78128 15.8168 3.2584 16.7187 4.00469 17.367C4.75098 18.0153 5.71293 18.3634 6.7029 18.3434H9.12479C9.41027 18.3434 9.68406 18.4563 9.88592 18.6574C10.0878 18.8585 10.2012 19.1313 10.2012 19.4156C10.2012 19.7 10.0878 19.9728 9.88592 20.1739C9.68406 20.3749 9.41027 20.4879 9.12479 20.4879H6.7029C5.16395 20.5215 3.66946 19.9726 2.52084 18.9517C1.37221 17.9309 0.65492 16.5141 0.513618 14.9872C0.408725 13.4459 0.912904 11.9248 1.91849 10.7488C2.92408 9.57274 4.35138 8.83496 5.8956 8.69297C5.98833 6.6968 6.73705 4.7863 8.02653 3.25554C9.31601 1.72479 11.0748 0.658611 13.0321 0.221118C14.9894 -0.216375 17.0369 -0.000936313 18.8593 0.834276C20.6816 1.66949 22.178 3.07818 23.118 4.84353C24.5968 5.36363 25.8924 6.29996 26.8477 7.53898C27.803 8.77801 28.377 10.2665 28.4999 11.824V12.328ZM16.9717 22.9434L15.5832 24.3374V11.9098C15.5832 11.6254 15.4698 11.3527 15.2679 11.1516C15.066 10.9505 14.7923 10.8375 14.5068 10.8375C14.2213 10.8375 13.9475 10.9505 13.7456 11.1516C13.5438 11.3527 13.4304 11.6254 13.4304 11.9098V24.3374L12.0418 22.9434C11.9415 22.8434 11.8223 22.7641 11.6912 22.71C11.5601 22.6559 11.4195 22.6281 11.2776 22.6281C11.1357 22.6281 10.9951 22.6559 10.864 22.71C10.7329 22.7641 10.6137 22.8434 10.5133 22.9434C10.413 23.0434 10.3334 23.1621 10.2791 23.2927C10.2247 23.4233 10.1968 23.5633 10.1968 23.7047C10.1968 23.8461 10.2247 23.9861 10.2791 24.1167C10.3334 24.2474 10.413 24.366 10.5133 24.466L13.7425 27.6828C13.8426 27.7833 13.9617 27.8631 14.0928 27.9175C14.224 27.972 14.3647 28 14.5068 28C14.6489 28 14.7896 27.972 14.9207 27.9175C15.0519 27.8631 15.171 27.7833 15.271 27.6828L18.5002 24.466C18.7029 24.2641 18.8168 23.9903 18.8168 23.7047C18.8168 23.4192 18.7029 23.1453 18.5002 22.9434C18.2975 22.7415 18.0226 22.6281 17.736 22.6281C17.4493 22.6281 17.1744 22.7415 16.9717 22.9434Z" fill="#3F3D56"/>
</svg>
