<svg width="21" height="19" viewBox="0 0 21 19" fill="none" xmlns="http://www.w3.org/2000/svg">
<path d="M13.9111 9.71477C13.9734 10.2756 17.6499 10.7118 20.1425 10.5872C21.3265 10.5248 21.2641 8.65543 20.0802 8.59311C18.8962 8.46848 13.8488 9.15394 13.9111 9.71477ZM12.3532 6.91063C12.6648 7.40914 16.1544 5.97592 18.2731 4.66732C19.2701 4.04418 18.3354 2.42401 17.2137 2.92252C16.1544 3.42104 12.0417 6.47443 12.3532 6.91063ZM12.4155 12.2696C12.1663 12.7058 15.095 15.0738 17.2137 16.3201C18.2731 16.8809 19.2701 15.2607 18.2731 14.5753C17.276 13.8898 12.6648 11.7711 12.4155 12.2696Z" fill="white"/>
<path d="M10.9199 1.86322L6.3087 13.3913M6.3087 13.3913L1.75977 1.86322M6.3087 13.3913L5.62324 15.1984C5.62324 15.1984 4.75085 17.5664 2.00902 17.0679" stroke="white" stroke-width="2.11868" stroke-linecap="round"/>
</svg>
