<svg width="29" height="12" viewBox="0 0 29 12" fill="none" xmlns="http://www.w3.org/2000/svg">
<path d="M5.67391 11.1736C2.82337 11.1736 0.5 8.85027 0.5 5.99973C0.5 3.14918 2.82337 0.825815 5.67391 0.825815H11.7609C14.488 0.825815 16.737 2.94375 16.925 5.62908C16.9413 5.87147 16.8614 6.1106 16.7016 6.29321C16.5418 6.47636 16.3163 6.58832 16.0739 6.60462C15.8315 6.62092 15.5924 6.54049 15.4098 6.38071C15.2266 6.22092 15.1152 5.99484 15.0989 5.75299C14.9766 4.00353 13.55 2.65245 11.7609 2.65245H5.67391C3.80326 2.65245 2.32609 4.12962 2.32609 6.00027C2.32609 7.87092 3.80326 9.3481 5.67391 9.3481H11.7609C12.0054 9.34484 12.2408 9.4394 12.4147 9.61114C12.5886 9.78288 12.6864 10.0171 12.6864 10.2611C12.6864 10.5052 12.5886 10.7394 12.4147 10.9111C12.2408 11.0829 12.0049 11.1774 11.7609 11.1742H5.67391V11.1736ZM17.2391 11.1736C14.512 11.1736 12.263 9.05571 12.075 6.37038C12.0587 6.12799 12.1386 5.8894 12.2984 5.70625C12.4582 5.5231 12.6837 5.41114 12.9261 5.39484C13.1685 5.37853 13.4076 5.45897 13.5902 5.61875C13.7734 5.77853 13.8848 6.00462 13.9011 6.24647C14.0239 7.99592 15.4505 9.34701 17.2397 9.34701H23.3266C25.1973 9.34701 26.6745 7.86984 26.6745 5.99918C26.6745 4.12853 25.1973 2.65136 23.3266 2.65136H17.2397C16.9951 2.65462 16.7598 2.56005 16.5859 2.38831C16.412 2.21658 16.3136 1.98288 16.3136 1.73831C16.3136 1.49375 16.4114 1.26005 16.5859 1.08831C16.7587 0.917119 16.9946 0.822554 17.2391 0.825815H23.3261C26.1766 0.825815 28.5 3.14918 28.5 5.99973C28.5 8.85027 26.1766 11.1736 23.3261 11.1736H17.2391Z" fill="#219CDC"/>
</svg>
