<svg width="12" height="8" viewBox="0 0 12 8" fill="none" xmlns="http://www.w3.org/2000/svg">
<path fill-rule="evenodd" clip-rule="evenodd" d="M11.1184 1.11891C10.6319 0.632349 9.84299 0.632348 9.35643 1.11891L6.06382 4.41152L2.73917 1.08686C2.23492 0.582618 1.41738 0.582618 0.913136 1.08686C0.408892 1.59111 0.408892 2.40865 0.913136 2.91289L5.08692 7.08667C5.09059 7.09034 5.09428 7.09399 5.09798 7.09761C5.10476 7.10471 5.11163 7.11174 5.11861 7.11872C5.60517 7.60528 6.39404 7.60528 6.8806 7.11872L6.89621 7.10311C6.90183 7.09769 6.9074 7.09221 6.91295 7.08667C6.91849 7.08113 6.92397 7.07555 6.92939 7.06994L11.1184 2.8809C11.605 2.39434 11.605 1.60547 11.1184 1.11891Z" fill="#224C8D"/>
</svg>
