<svg width="16" height="15" viewBox="0 0 16 15" fill="none" xmlns="http://www.w3.org/2000/svg">
<g id="ICON">
<path id="Union" fill-rule="evenodd" clip-rule="evenodd" d="M6.53297 1.20009C5.87023 0.537353 4.79572 0.537353 4.13297 1.20009L4.14718 1.2143C4.07254 1.27027 4.00095 1.33219 3.93307 1.40008L1.73307 3.60008C1.66517 3.66798 1.60323 3.73958 1.54725 3.81424L1.53312 3.80011C0.870382 4.46285 0.870383 5.53737 1.53312 6.20011L1.72803 6.39502L1.73307 6.40007L1.73308 6.40006L3.53312 8.20011C4.19586 8.86285 5.27038 8.86285 5.93312 8.20011L2.93308 5.20007L5.53301 2.60013L8.53297 5.60009C9.19571 4.93735 9.19571 3.86284 8.53297 3.20009L6.73301 1.40013L6.73307 1.40007L6.72025 1.38737L6.53297 1.20009ZM14.1331 8.80011C14.7958 9.46286 14.7958 10.5374 14.1331 11.2001L14.1189 11.186C14.063 11.2606 14.001 11.3322 13.9331 11.4001L11.7331 13.6001C11.6652 13.668 11.5936 13.73 11.5189 13.7859L11.533 13.8001C10.8703 14.4628 9.79579 14.4628 9.13305 13.8001L7.13305 11.8001C6.47031 11.1374 6.47031 10.0628 7.13305 9.4001L10.1331 12.4001L12.7331 9.80012L9.73309 6.80012C10.3958 6.13737 11.4703 6.13737 12.1331 6.80012L13.9331 8.60012L13.9331 8.60008L13.9445 8.61157L14.1331 8.80011ZM5.83293 5.50008C5.44634 5.88668 5.44634 6.51348 5.83293 6.90008L8.83293 9.90008C9.21953 10.2867 9.84633 10.2867 10.2329 9.90008C10.6195 9.51348 10.6195 8.88668 10.2329 8.50008L7.23293 5.50008C6.84633 5.11348 6.21953 5.11348 5.83293 5.50008Z" fill="#42B1B2"/>
</g>
</svg>
