<svg width="111" height="49" viewBox="0 0 111 49" fill="none" xmlns="http://www.w3.org/2000/svg">
<g id="logo 1" clip-path="url(#clip0_328_81114)">
<path id="Vector" d="M3.04291 39.8966C3.04291 40.8007 3.70785 41.1048 5.2255 41.5839C6.73032 42.0596 8.60394 42.6517 8.58601 44.9977C8.58601 46.8442 7.03763 48.0896 4.73299 48.0896C3.36727 48.0896 1.92388 47.478 0.965321 46.4948C0.781803 46.3063 0.7451 46.0121 0.877403 45.7818L1.17445 45.2591C1.26407 45.1026 1.41857 44.9986 1.59184 44.9781C1.76426 44.9577 1.93071 45.0288 2.0596 45.1524C2.70575 45.7738 3.7693 46.3152 4.74664 46.3152C5.76666 46.3152 6.85667 45.972 6.85667 45.0075C6.86521 44.0465 6.18747 43.7353 4.63739 43.2517L4.63341 43.2505C3.15399 42.7875 1.31272 42.2113 1.31272 39.9393C1.31272 38.1889 2.79111 37.0127 4.98991 37.0127C6.03639 37.0127 7.19298 37.3568 8.00814 37.9115C8.24629 38.0742 8.32909 38.396 8.20276 38.6609L7.94498 39.1979C7.87328 39.3463 7.74354 39.4575 7.58989 39.5001C7.43625 39.5446 7.27151 39.517 7.1375 39.4263C6.57158 39.0405 5.7385 38.8005 4.96345 38.8005C4.07744 38.8005 3.04291 39.0876 3.04291 39.8966Z" fill="#134C93"/>
<path id="Vector_2" fill-rule="evenodd" clip-rule="evenodd" d="M14.8698 37.0403C15.0892 37.0403 15.2881 37.1736 15.3794 37.3807L19.7164 47.2477C19.7958 47.43 19.7822 47.6398 19.6789 47.806C19.5756 47.9732 19.3989 48.0745 19.2077 48.0745H18.5837C18.3652 48.0745 18.1663 47.9412 18.075 47.734L16.991 45.2653H12.1683L11.0971 47.7313C11.0066 47.9403 10.8068 48.0745 10.5866 48.0745H9.96349C9.77315 48.0745 9.59645 47.9749 9.49232 47.8069C9.38989 47.6398 9.37538 47.4309 9.45391 47.2495L13.7508 37.3825C13.8413 37.1736 14.0402 37.0403 14.2604 37.0403H14.8698ZM14.5608 39.7135L12.9186 43.505H16.2219L14.5608 39.7135Z" fill="#134C93"/>
<path id="Vector_3" d="M22.5283 37.0413H21.9598C21.6508 37.0413 21.3999 37.3027 21.3999 37.6245V47.4915C21.3999 47.8142 21.6508 48.0747 21.9598 48.0747H22.5283C22.8373 48.0747 23.0882 47.8142 23.0882 47.4915V37.6245C23.0882 37.3027 22.8373 37.0413 22.5283 37.0413Z" fill="#134C93"/>
<path id="Vector_4" d="M33.792 37.0413H34.3476C34.6566 37.0413 34.9076 37.3027 34.9076 37.6245V47.4915C34.9076 47.8142 34.6566 48.0747 34.3476 48.0747H33.6836C33.5043 48.0747 33.3362 47.9867 33.2312 47.8382L27.9271 40.3084V47.4915C27.9271 47.8142 27.6761 48.0747 27.3663 48.0747H26.7978C26.4879 48.0747 26.2378 47.8142 26.2378 47.4915V37.6245C26.2378 37.3027 26.4879 37.0413 26.7978 37.0413H27.4619C27.6403 37.0413 27.8076 37.1285 27.9134 37.2787L33.2312 44.8112V37.6245C33.2312 37.3027 33.4813 37.0413 33.792 37.0413Z" fill="#134C93"/>
<path id="Vector_5" d="M44.1196 37.0413H37.1519C36.8429 37.0413 36.5928 37.3027 36.5928 37.6245V38.2041C36.5928 38.5251 36.8429 38.7864 37.1519 38.7864H39.792V47.4915C39.792 47.8142 40.0429 48.0747 40.3519 48.0747H40.9195C41.2302 48.0747 41.4812 47.8142 41.4812 47.4915V38.7864H44.1196C44.4294 38.7864 44.6795 38.5251 44.6795 38.2041V37.6245C44.6795 37.3027 44.4294 37.0413 44.1196 37.0413Z" fill="#134C93"/>
<path id="Vector_6" d="M45.263 42.4197H48.2864C48.5954 42.4197 48.8454 42.6802 48.8454 43.0029V43.4829C48.8454 43.8057 48.5954 44.0661 48.2864 44.0661H45.263C44.954 44.0661 44.7031 43.8057 44.7031 43.4829V43.0029C44.7031 42.6802 44.954 42.4197 45.263 42.4197Z" fill="#134C93"/>
<path id="Vector_7" d="M60.0581 42.0659H59.5425L59.5385 42.0663L59.5359 42.0666L59.5331 42.0668H57.8516C57.5417 42.0668 57.2908 42.3281 57.2908 42.6499V43.2429C57.2908 43.5647 57.5417 43.8261 57.8516 43.8261H58.9834V45.6299C58.3236 46.101 57.5306 46.3571 56.724 46.3571C54.6336 46.3571 52.9333 44.6502 52.9333 42.5513C52.9333 40.4595 54.6336 38.7579 56.724 38.7579C57.6945 38.7579 58.6497 39.1304 59.3453 39.7803C59.4597 39.8869 59.6116 39.9412 59.7644 39.9278C59.9181 39.9154 60.0589 39.8372 60.1554 39.7127L60.4942 39.2753C60.682 39.0308 60.6538 38.6752 60.4268 38.469C59.4093 37.54 58.0931 37.0261 56.724 37.0261C53.7024 37.0261 51.2432 39.5038 51.2432 42.5513C51.2432 45.605 53.6896 48.0879 56.6967 48.0879C58.0564 48.0879 59.4136 47.5688 60.4242 46.6629C60.5472 46.5526 60.6189 46.3909 60.6189 46.2202V42.6491C60.6189 42.3281 60.3671 42.0659 60.0581 42.0659Z" fill="#134C93"/>
<path id="Vector_8" fill-rule="evenodd" clip-rule="evenodd" d="M62.5342 42.5504C62.5342 39.5038 64.9866 37.0261 68.0005 37.0261C71.0145 37.0261 73.4676 39.5038 73.4676 42.5504C73.4676 45.605 71.0145 48.0879 68.0005 48.0879C64.9866 48.0879 62.5342 45.605 62.5342 42.5504ZM64.2363 42.5504C64.2363 44.6413 65.9246 46.3428 68.0005 46.3428C70.0756 46.3428 71.7639 44.6413 71.7639 42.5504C71.7639 40.4666 70.0756 38.7721 68.0005 38.7721C65.9246 38.7721 64.2363 40.4666 64.2363 42.5504Z" fill="#134C93"/>
<path id="Vector_9" fill-rule="evenodd" clip-rule="evenodd" d="M82.4387 42.2453C83.0089 41.7342 83.3256 40.9812 83.3256 40.0655C83.3256 38.1995 81.9786 37.0403 79.8106 37.0403H75.9336C75.6255 37.0403 75.3745 37.3016 75.3745 37.6234V47.4913C75.3745 47.8131 75.6255 48.0745 75.9336 48.0745H79.8379C82.3192 48.0745 83.7993 46.8646 83.7993 44.8385C83.7993 43.6917 83.3017 42.7796 82.4387 42.2453ZM79.7969 41.5155H77.0629V38.7862H79.7969C80.6351 38.7862 81.6364 39.0201 81.6364 40.1366C81.6364 41.0514 81.0175 41.5155 79.7969 41.5155ZM77.0629 43.2606H79.7969C80.6607 43.2606 82.1101 43.4562 82.1101 44.7665C82.1101 46.0583 80.8528 46.3294 79.7969 46.3294H77.0629V43.2606Z" fill="#134C93"/>
<path id="Vector_10" fill-rule="evenodd" clip-rule="evenodd" d="M90.1655 37.0403C90.3848 37.0403 90.5837 37.1736 90.675 37.3807L95.012 47.2477C95.0914 47.43 95.0769 47.6398 94.9736 47.806C94.8712 47.9732 94.6928 48.0745 94.5024 48.0745H93.8793C93.6608 48.0745 93.4611 47.9412 93.3698 47.734L92.2857 45.2653H87.4647L86.3935 47.7313C86.303 47.9403 86.1033 48.0745 85.8831 48.0745H85.26C85.0688 48.0745 84.8921 47.9749 84.7888 47.8069C84.6847 47.6398 84.6701 47.4309 84.7487 47.2495L89.0447 37.3825C89.136 37.1736 89.3349 37.0403 89.556 37.0403H90.1655ZM89.8564 39.7135L88.2142 43.505H91.5175L89.8564 39.7135Z" fill="#134C93"/>
<path id="Vector_11" d="M97.8225 37.0413H97.2532C96.9442 37.0413 96.6924 37.3027 96.6924 37.6245V47.4915C96.6924 47.8142 96.9442 48.0747 97.2532 48.0747H97.8225C98.1315 48.0747 98.3842 47.8142 98.3842 47.4915V37.6245C98.3842 37.3027 98.1315 37.0413 97.8225 37.0413Z" fill="#134C93"/>
<path id="Vector_12" d="M109.086 37.0413H109.642C109.951 37.0413 110.201 37.3027 110.201 37.6245V47.4915C110.201 47.8142 109.951 48.0747 109.642 48.0747H108.977C108.799 48.0747 108.632 47.9867 108.527 47.8382L103.221 40.3084V47.4915C103.221 47.8142 102.971 48.0747 102.662 48.0747H102.092C101.782 48.0747 101.531 47.8142 101.531 47.4915V37.6245C101.531 37.3027 101.782 37.0413 102.092 37.0413H102.756C102.935 37.0413 103.103 37.1285 103.208 37.2787L108.527 44.8112V37.6245C108.527 37.3027 108.777 37.0413 109.086 37.0413Z" fill="#134C93"/>
<path id="Vector_13" d="M62.2449 21.8856V31.5464H60.5359V20.5567L62.2449 21.8856ZM95.3752 31.5146H88.6525L88.6048 31.4659L82.692 25.3792C82.4512 25.1313 82.0803 25.0551 81.7665 25.1915C81.4483 25.3296 81.2425 25.6501 81.2425 26.0086V31.5464H79.4859V17.8423C79.4859 17.5997 79.388 17.3651 79.2188 17.1986L74.3062 12.37C74.148 12.2142 73.9396 12.1283 73.7218 12.1283H71.266C70.7965 12.1283 70.4145 12.5258 70.4145 13.0136V31.5464H68.6715V1.7937C68.6715 1.43248 68.464 1.11111 68.1433 0.974773C67.8285 0.840199 67.4509 0.921642 67.2144 1.17219L59.0787 9.76442C58.9205 9.93086 58.8338 10.1522 58.8338 10.3859V17.0233L55.5026 14.4346C55.1998 14.2 54.7557 14.2079 54.4614 14.4532L46.8872 20.7727C46.6848 20.9418 46.5691 21.1942 46.5691 21.4642V31.5464H44.8525V25.9892C44.8525 24.0379 43.5612 21.9635 41.17 21.9635C38.778 21.9635 37.4875 24.0476 37.4875 26.0086V31.5464L35.7513 31.5456V27.7758C35.7513 26.2477 34.7408 24.6249 32.8676 24.6249C30.9945 24.6249 29.9839 26.2494 29.9839 27.7793V31.5473L28.2546 31.5482L28.2537 31.3809C28.2512 30.6213 28.2486 29.6483 28.2486 29.2578C28.2486 27.9599 27.0713 26.8223 25.729 26.8223C24.3866 26.8223 23.2093 27.9546 23.2093 29.2463V31.5464L15.6249 31.5456C15.1554 31.5456 14.7743 31.9431 14.7734 32.4309C14.7734 32.6682 14.8619 32.8904 15.0227 33.0577C15.1835 33.225 15.397 33.3171 15.6241 33.3171L24.06 33.318C24.2871 33.318 24.5015 33.2259 24.6614 33.0586C24.8222 32.8913 24.9115 32.669 24.9115 32.4327V29.4066C24.9115 29.079 25.2543 28.5929 25.729 28.5929C26.1968 28.5929 26.5473 29.0374 26.5473 29.4349C26.5473 29.6624 26.5558 32.438 26.5558 32.438C26.5584 32.9249 26.9395 33.3207 27.4065 33.3207L30.8354 33.318C31.3041 33.318 31.6861 32.9205 31.6861 32.4327V27.7793C31.6861 27.3003 31.9328 26.3955 32.8676 26.3955C33.8025 26.3955 34.05 27.2977 34.05 27.7758V32.43C34.05 32.9187 34.4311 33.3162 34.8998 33.3162L38.3373 33.318C38.5619 33.318 38.7814 33.2233 38.9396 33.0586C39.0978 32.8939 39.1888 32.6655 39.1888 32.4327V26.0086C39.1888 25.2225 39.6031 23.7342 41.17 23.7342C42.6229 23.7342 43.1503 25.0826 43.1503 25.9892V32.4327C43.1503 32.9205 43.5322 33.318 44.001 33.318H47.4197C47.8893 33.318 48.2704 32.9205 48.2704 32.4327V21.8891L48.3316 21.8378L55.0118 16.2637L58.8338 19.234V32.4327C58.8338 32.9205 59.2157 33.318 59.6844 33.318H63.0964C63.5651 33.318 63.947 32.9205 63.947 32.4327V21.4412C63.947 21.1641 63.8186 20.8985 63.6051 20.732L60.5359 18.346V10.7489L60.5827 10.6993L66.9694 3.95393V32.4327C66.9694 32.9205 67.3513 33.318 67.82 33.318H71.266C71.7347 33.318 72.1167 32.9205 72.1167 32.4327V13.899H73.3833L73.4301 13.945L77.7837 18.2238V32.4327C77.7837 32.9205 78.1656 33.318 78.6343 33.318H82.0931C82.5627 33.318 82.9446 32.9205 82.9446 32.4327V28.1299L87.704 33.0294C87.8648 33.1941 88.0774 33.2852 88.302 33.2852H95.3752C95.8447 33.2852 96.2267 32.8877 96.2267 32.3999C96.2267 31.9112 95.8447 31.5146 95.3752 31.5146Z" fill="url(#paint0_linear_328_81114)"/>
</g>
<defs>
<linearGradient id="paint0_linear_328_81114" x1="14.6773" y1="17.1154" x2="96.4521" y2="17.1154" gradientUnits="userSpaceOnUse">
<stop stop-color="#54B6AE"/>
<stop offset="0.1" stop-color="#54B6AE"/>
<stop offset="0.3" stop-color="#3B98DA"/>
<stop offset="0.42" stop-color="#254A9A"/>
<stop offset="0.55" stop-color="#ED1443"/>
<stop offset="0.84" stop-color="#F25C19"/>
<stop offset="1" stop-color="#F25C19"/>
</linearGradient>
<clipPath id="clip0_328_81114">
<rect width="111" height="48" fill="white" transform="translate(0 0.5)"/>
</clipPath>
</defs>
</svg>
