<svg width="111" height="49" viewBox="0 0 111 49" fill="none" xmlns="http://www.w3.org/2000/svg">
<g id="logo 1" clip-path="url(#clip0_733_37396)">
<path id="Vector" d="M3.04291 39.8967C3.04291 40.8008 3.70785 41.1049 5.2255 41.584C6.73032 42.0597 8.60394 42.6518 8.58601 44.9978C8.58601 46.8443 7.03763 48.0897 4.73299 48.0897C3.36727 48.0897 1.92388 47.4781 0.965321 46.4949C0.781803 46.3064 0.7451 46.0122 0.877403 45.7819L1.17445 45.2592C1.26407 45.1027 1.41857 44.9987 1.59184 44.9782C1.76426 44.9578 1.93071 45.0289 2.0596 45.1525C2.70575 45.7739 3.7693 46.3153 4.74664 46.3153C5.76666 46.3153 6.85667 45.9721 6.85667 45.0076C6.86521 44.0466 6.18747 43.7354 4.63739 43.2518L4.63341 43.2506C3.15399 42.7876 1.31272 42.2114 1.31272 39.9394C1.31272 38.189 2.79111 37.0128 4.98991 37.0128C6.03639 37.0128 7.19298 37.3569 8.00814 37.9116C8.24629 38.0743 8.32909 38.3961 8.20276 38.661L7.94498 39.198C7.87328 39.3464 7.74354 39.4576 7.58989 39.5002C7.43625 39.5447 7.27151 39.5171 7.1375 39.4264C6.57158 39.0406 5.7385 38.8006 4.96345 38.8006C4.07744 38.8006 3.04291 39.0877 3.04291 39.8967Z" fill="white"/>
<path id="Vector_2" fill-rule="evenodd" clip-rule="evenodd" d="M14.87 37.0404C15.0894 37.0404 15.2883 37.1737 15.3796 37.3808L19.7166 47.2478C19.796 47.4301 19.7824 47.6399 19.6791 47.8061C19.5758 47.9733 19.3991 48.0746 19.2079 48.0746H18.5839C18.3654 48.0746 18.1665 47.9413 18.0752 47.7341L16.9912 45.2654H12.1685L11.0973 47.7314C11.0068 47.9404 10.807 48.0746 10.5868 48.0746H9.96374C9.7734 48.0746 9.5967 47.975 9.49257 47.807C9.39014 47.6399 9.37563 47.431 9.45416 47.2496L13.751 37.3826C13.8415 37.1737 14.0404 37.0404 14.2606 37.0404H14.87ZM14.561 39.7136L12.9188 43.5051H16.2221L14.561 39.7136Z" fill="white"/>
<path id="Vector_3" d="M22.5283 37.0412H21.9598C21.6508 37.0412 21.3999 37.3026 21.3999 37.6244V47.4914C21.3999 47.8141 21.6508 48.0746 21.9598 48.0746H22.5283C22.8373 48.0746 23.0882 47.8141 23.0882 47.4914V37.6244C23.0882 37.3026 22.8373 37.0412 22.5283 37.0412Z" fill="white"/>
<path id="Vector_4" d="M33.7921 37.0412H34.3477C34.6567 37.0412 34.9077 37.3026 34.9077 37.6244V47.4914C34.9077 47.8141 34.6567 48.0746 34.3477 48.0746H33.6837C33.5044 48.0746 33.3363 47.9866 33.2313 47.8381L27.9272 40.3083V47.4914C27.9272 47.8141 27.6762 48.0746 27.3664 48.0746H26.7979C26.488 48.0746 26.2379 47.8141 26.2379 47.4914V37.6244C26.2379 37.3026 26.488 37.0412 26.7979 37.0412H27.462C27.6404 37.0412 27.8077 37.1284 27.9135 37.2786L33.2313 44.8111V37.6244C33.2313 37.3026 33.4814 37.0412 33.7921 37.0412Z" fill="white"/>
<path id="Vector_5" d="M44.1194 37.0412H37.1517C36.8427 37.0412 36.5927 37.3026 36.5927 37.6244V38.204C36.5927 38.525 36.8427 38.7863 37.1517 38.7863H39.7919V47.4914C39.7919 47.8141 40.0427 48.0746 40.3517 48.0746H40.9193C41.23 48.0746 41.481 47.8141 41.481 47.4914V38.7863H44.1194C44.4292 38.7863 44.6793 38.525 44.6793 38.204V37.6244C44.6793 37.3026 44.4292 37.0412 44.1194 37.0412Z" fill="white"/>
<path id="Vector_6" d="M45.2631 42.4197H48.2865C48.5955 42.4197 48.8455 42.6802 48.8455 43.0029V43.4829C48.8455 43.8057 48.5955 44.0661 48.2865 44.0661H45.2631C44.9541 44.0661 44.7032 43.8057 44.7032 43.4829V43.0029C44.7032 42.6802 44.9541 42.4197 45.2631 42.4197Z" fill="white"/>
<path id="Vector_7" d="M60.0581 42.0659H59.5425L59.5385 42.0663L59.5359 42.0666L59.5331 42.0668H57.8516C57.5417 42.0668 57.2908 42.3281 57.2908 42.6499V43.2429C57.2908 43.5647 57.5417 43.8261 57.8516 43.8261H58.9834V45.6299C58.3236 46.101 57.5306 46.3571 56.724 46.3571C54.6336 46.3571 52.9333 44.6502 52.9333 42.5513C52.9333 40.4595 54.6336 38.7579 56.724 38.7579C57.6945 38.7579 58.6497 39.1304 59.3453 39.7803C59.4597 39.8869 59.6116 39.9412 59.7644 39.9278C59.9181 39.9154 60.0589 39.8372 60.1554 39.7127L60.4942 39.2753C60.682 39.0308 60.6538 38.6752 60.4268 38.469C59.4093 37.54 58.0931 37.0261 56.724 37.0261C53.7024 37.0261 51.2432 39.5038 51.2432 42.5513C51.2432 45.605 53.6896 48.0879 56.6967 48.0879C58.0564 48.0879 59.4136 47.5688 60.4242 46.6629C60.5472 46.5526 60.6189 46.3909 60.6189 46.2202V42.6491C60.6189 42.3281 60.3671 42.0659 60.0581 42.0659Z" fill="white"/>
<path id="Vector_8" fill-rule="evenodd" clip-rule="evenodd" d="M62.5343 42.5504C62.5343 39.5038 64.9867 37.0261 68.0006 37.0261C71.0146 37.0261 73.4677 39.5038 73.4677 42.5504C73.4677 45.605 71.0146 48.0879 68.0006 48.0879C64.9867 48.0879 62.5343 45.605 62.5343 42.5504ZM64.2364 42.5504C64.2364 44.6413 65.9247 46.3428 68.0006 46.3428C70.0757 46.3428 71.764 44.6413 71.764 42.5504C71.764 40.4666 70.0757 38.7721 68.0006 38.7721C65.9247 38.7721 64.2364 40.4666 64.2364 42.5504Z" fill="white"/>
<path id="Vector_9" fill-rule="evenodd" clip-rule="evenodd" d="M82.4388 42.2454C83.009 41.7343 83.3257 40.9813 83.3257 40.0656C83.3257 38.1996 81.9787 37.0404 79.8107 37.0404H75.9337C75.6256 37.0404 75.3746 37.3017 75.3746 37.6235V47.4914C75.3746 47.8132 75.6256 48.0746 75.9337 48.0746H79.838C82.3193 48.0746 83.7994 46.8647 83.7994 44.8386C83.7994 43.6918 83.3018 42.7797 82.4388 42.2454ZM79.797 41.5156H77.063V38.7863H79.797C80.6352 38.7863 81.6365 39.0202 81.6365 40.1367C81.6365 41.0515 81.0176 41.5156 79.797 41.5156ZM77.063 43.2607H79.797C80.6608 43.2607 82.1102 43.4563 82.1102 44.7666C82.1102 46.0584 80.8529 46.3295 79.797 46.3295H77.063V43.2607Z" fill="white"/>
<path id="Vector_10" fill-rule="evenodd" clip-rule="evenodd" d="M90.1653 37.0404C90.3846 37.0404 90.5835 37.1737 90.6748 37.3808L95.0118 47.2478C95.0912 47.4301 95.0767 47.6399 94.9734 47.8061C94.871 47.9733 94.6926 48.0746 94.5022 48.0746H93.8791C93.6606 48.0746 93.4609 47.9413 93.3696 47.7341L92.2855 45.2654H87.4645L86.3933 47.7314C86.3028 47.9404 86.1031 48.0746 85.8829 48.0746H85.2598C85.0686 48.0746 84.8919 47.975 84.7886 47.807C84.6845 47.6399 84.6699 47.431 84.7485 47.2496L89.0445 37.3826C89.1358 37.1737 89.3347 37.0404 89.5558 37.0404H90.1653ZM89.8562 39.7136L88.214 43.5051H91.5173L89.8562 39.7136Z" fill="white"/>
<path id="Vector_11" d="M97.8226 37.0412H97.2533C96.9443 37.0412 96.6925 37.3026 96.6925 37.6244V47.4914C96.6925 47.8141 96.9443 48.0746 97.2533 48.0746H97.8226C98.1316 48.0746 98.3843 47.8141 98.3843 47.4914V37.6244C98.3843 37.3026 98.1316 37.0412 97.8226 37.0412Z" fill="white"/>
<path id="Vector_12" d="M109.086 37.0412H109.642C109.951 37.0412 110.201 37.3026 110.201 37.6244V47.4914C110.201 47.8141 109.951 48.0746 109.642 48.0746H108.977C108.799 48.0746 108.632 47.9866 108.527 47.8381L103.221 40.3083V47.4914C103.221 47.8141 102.971 48.0746 102.662 48.0746H102.092C101.782 48.0746 101.531 47.8141 101.531 47.4914V37.6244C101.531 37.3026 101.782 37.0412 102.092 37.0412H102.756C102.935 37.0412 103.103 37.1284 103.208 37.2786L108.527 44.8111V37.6244C108.527 37.3026 108.777 37.0412 109.086 37.0412Z" fill="white"/>
<path id="Vector_13" d="M62.2449 21.8855V31.5463H60.5359V20.5566L62.2449 21.8855ZM95.3752 31.5145H88.6525L88.6048 31.4658L82.692 25.3791C82.4512 25.1312 82.0803 25.055 81.7665 25.1914C81.4483 25.3295 81.2425 25.65 81.2425 26.0085V31.5463H79.4859V17.8422C79.4859 17.5996 79.388 17.365 79.2188 17.1985L74.3062 12.3699C74.148 12.2141 73.9396 12.1282 73.7218 12.1282H71.266C70.7965 12.1282 70.4145 12.5257 70.4145 13.0135V31.5463H68.6715V1.79358C68.6715 1.43236 68.464 1.11099 68.1433 0.974651C67.8285 0.840077 67.4509 0.92152 67.2144 1.17207L59.0787 9.7643C58.9205 9.93074 58.8338 10.1521 58.8338 10.3858V17.0232L55.5026 14.4345C55.1998 14.1999 54.7557 14.2078 54.4614 14.4531L46.8872 20.7726C46.6848 20.9417 46.5691 21.1941 46.5691 21.4641V31.5463H44.8525V25.9891C44.8525 24.0378 43.5612 21.9634 41.17 21.9634C38.778 21.9634 37.4875 24.0475 37.4875 26.0085V31.5463L35.7513 31.5455V27.7757C35.7513 26.2476 34.7408 24.6248 32.8676 24.6248C30.9945 24.6248 29.9839 26.2493 29.9839 27.7792V31.5472L28.2546 31.5481L28.2537 31.3808C28.2512 30.6212 28.2486 29.6482 28.2486 29.2577C28.2486 27.9598 27.0713 26.8222 25.729 26.8222C24.3866 26.8222 23.2093 27.9545 23.2093 29.2462V31.5463L15.6249 31.5455C15.1554 31.5455 14.7743 31.943 14.7734 32.4308C14.7734 32.6681 14.8619 32.8903 15.0227 33.0576C15.1835 33.2249 15.397 33.317 15.6241 33.317L24.06 33.3179C24.2871 33.3179 24.5015 33.2258 24.6614 33.0585C24.8222 32.8912 24.9115 32.6689 24.9115 32.4326V29.4065C24.9115 29.0789 25.2543 28.5928 25.729 28.5928C26.1968 28.5928 26.5473 29.0373 26.5473 29.4348C26.5473 29.6623 26.5558 32.4379 26.5558 32.4379C26.5584 32.9248 26.9395 33.3206 27.4065 33.3206L30.8354 33.3179C31.3041 33.3179 31.6861 32.9204 31.6861 32.4326V27.7792C31.6861 27.3002 31.9328 26.3954 32.8676 26.3954C33.8025 26.3954 34.05 27.2976 34.05 27.7757V32.4299C34.05 32.9186 34.4311 33.3161 34.8998 33.3161L38.3373 33.3179C38.5619 33.3179 38.7814 33.2232 38.9396 33.0585C39.0978 32.8938 39.1888 32.6654 39.1888 32.4326V26.0085C39.1888 25.2224 39.6031 23.7341 41.17 23.7341C42.6229 23.7341 43.1503 25.0825 43.1503 25.9891V32.4326C43.1503 32.9204 43.5322 33.3179 44.001 33.3179H47.4197C47.8893 33.3179 48.2704 32.9204 48.2704 32.4326V21.889L48.3316 21.8377L55.0118 16.2636L58.8338 19.2339V32.4326C58.8338 32.9204 59.2157 33.3179 59.6844 33.3179H63.0964C63.5651 33.3179 63.947 32.9204 63.947 32.4326V21.4411C63.947 21.164 63.8186 20.8984 63.6051 20.7319L60.5359 18.3459V10.7488L60.5827 10.6992L66.9694 3.95381V32.4326C66.9694 32.9204 67.3513 33.3179 67.82 33.3179H71.266C71.7347 33.3179 72.1167 32.9204 72.1167 32.4326V13.8989H73.3833L73.4301 13.9449L77.7837 18.2237V32.4326C77.7837 32.9204 78.1656 33.3179 78.6343 33.3179H82.0931C82.5627 33.3179 82.9446 32.9204 82.9446 32.4326V28.1298L87.704 33.0293C87.8648 33.194 88.0774 33.2851 88.302 33.2851H95.3752C95.8447 33.2851 96.2267 32.8876 96.2267 32.3998C96.2267 31.9111 95.8447 31.5145 95.3752 31.5145Z" fill="white"/>
</g>
<defs>
<clipPath id="clip0_733_37396">
<rect width="111" height="48" fill="white" transform="translate(0 0.5)"/>
</clipPath>
</defs>
</svg>
