<svg width="52" height="36" viewBox="0 0 52 36" fill="none" xmlns="http://www.w3.org/2000/svg">
<path d="M50.2061 6.12929L21.1699 6.12928L21.3053 5.74646C21.6664 4.72094 21.6196 3.63136 21.1756 2.75799C20.5467 1.52019 19.3791 0.705833 18.0529 0.579445C17.4059 0.517685 16.7502 0.614033 16.1564 0.859333C14.3213 1.61486 13.3984 3.76483 14.059 5.75197L14.1843 6.12906L7.3494 6.12928C6.91099 6.12928 6.55587 6.48522 6.55581 6.92469L6.55553 14.5707L6.04883 14.4012C4.7853 13.9796 3.45494 14.1864 2.48929 14.9555C2.37588 15.0461 2.26785 15.1422 2.15746 15.2513C1.41102 16.0093 1.00028 17.0071 1 18.0615C1.00028 19.1275 1.41511 20.1288 2.16902 20.8811C3.14398 21.8527 4.67492 22.1799 6.06999 21.7138L6.55581 21.5515L6.55581 29.1978C6.55581 29.6372 6.91093 29.9931 7.34939 29.9932L36.4068 29.9934L36.2043 30.6023C35.7614 31.9349 36.0947 33.3872 37.0852 34.4021C37.7914 35.1 38.7198 35.5098 39.6986 35.557C41.1194 35.6254 42.4807 34.8685 43.2504 33.5823C43.8223 32.6284 43.919 31.4389 43.5168 30.3183L43.3998 29.9934L50.2062 29.9931C50.4254 29.9931 50.6238 29.9041 50.7674 29.7602C50.9109 29.6164 50.9997 29.4175 50.9997 29.1978L51 20.4477C51.0003 20.1887 50.8742 19.9459 50.6629 19.7968C50.4509 19.6479 50.1802 19.6117 49.9376 19.6993L48.5503 20.2006C47.8929 20.4382 47.1824 20.3884 46.65 20.0668C45.8679 19.5961 45.407 18.7837 45.4476 17.9465C45.4755 17.3571 45.7232 16.7968 46.1368 16.3763C46.1995 16.314 46.2658 16.2551 46.3349 16.2002C46.8692 15.7746 47.6625 15.6633 48.4037 15.9107L49.9549 16.4296C50.1969 16.5106 50.4633 16.47 50.6704 16.3205C50.8765 16.17 51.0003 15.9305 50.9998 15.6751V6.92475C50.9997 6.48517 50.6446 6.12923 50.2061 6.12929ZM8.14292 20.4473C8.14315 20.1916 8.02069 19.9513 7.81356 19.8018C7.60642 19.6524 7.34008 19.6118 7.09837 19.6925L5.56794 20.2042C4.73682 20.4818 3.84216 20.3047 3.28866 19.7532C2.83622 19.302 2.58739 18.701 2.58745 18.0617C2.58773 17.428 2.83622 16.8269 3.2799 16.3762C3.34264 16.3139 3.40898 16.255 3.478 16.2001C4.01237 15.7744 4.80567 15.6632 5.54712 15.9109L7.09781 16.4292C7.3398 16.5102 7.60614 16.4696 7.81328 16.3201C8.01878 16.1702 8.14214 15.9312 8.14264 15.6747L8.14292 7.71999L15.2858 7.7197C15.5412 7.7197 15.7794 7.59472 15.9298 7.38958C16.0789 7.18191 16.1194 6.91502 16.0386 6.67247L15.5649 5.24838C15.1744 4.07369 15.7093 2.76418 16.7604 2.33022C17.1216 2.18139 17.5058 2.12475 17.9012 2.163H17.9023C18.6854 2.23719 19.3798 2.72987 19.761 3.47994C20.0087 3.9666 20.0257 4.59995 19.8087 5.21626L19.2996 6.65925C19.2135 6.90258 19.2508 7.17286 19.3998 7.38379C19.5486 7.59444 19.79 7.71999 20.0476 7.71999H27.9844L27.9843 14.5708L27.4774 14.4011C26.2136 13.9792 24.8828 14.1866 23.9185 14.9548C23.8055 15.0449 23.6964 15.1421 23.5861 15.2512C23.4065 15.4337 23.2478 15.6318 23.1078 15.8409C23.0506 15.926 23.0104 16.0191 22.9602 16.1078C22.8874 16.2365 22.8107 16.3629 22.7528 16.4984C22.7077 16.6037 22.6796 16.7144 22.6439 16.8232C22.6012 16.9529 22.5551 17.0805 22.5259 17.2142C22.5022 17.3234 22.4936 17.4352 22.479 17.5465C22.4648 17.6548 22.4386 17.7607 22.4334 17.8705C22.4315 17.9093 22.4367 17.9473 22.4361 17.9859C22.4357 18.0114 22.4287 18.0359 22.4287 18.0614C22.4288 18.1034 22.4395 18.1432 22.4408 18.185C22.4464 18.3364 22.4612 18.4859 22.4848 18.6343C22.6068 19.4813 22.9816 20.2661 23.598 20.8812C24.0253 21.3071 24.5626 21.6009 25.1456 21.7666C25.1612 21.7716 25.1773 21.7753 25.193 21.7801C25.2761 21.8026 25.3582 21.8272 25.4431 21.8441C26.1542 22.0075 26.9215 21.9638 27.6595 21.6969L27.9842 21.5797L27.9845 28.4022L8.14298 28.4022L8.14292 20.4473ZM49.4126 14.5708L48.9056 14.4011C47.6413 13.9798 46.311 14.1867 45.3467 14.9549C45.2337 15.045 45.1246 15.1422 45.0143 15.2512C44.3177 15.9593 43.9086 16.8895 43.8615 17.8706C43.7935 19.2933 44.5485 20.6575 45.8316 21.4306C46.783 22.0041 47.9704 22.101 49.0878 21.6973L49.4126 21.58V28.4023L42.2697 28.4026C42.057 28.4026 41.8559 28.4877 41.7085 28.6355C41.6762 28.6679 41.6466 28.703 41.6205 28.7407C41.4717 28.953 41.4352 29.224 41.523 29.468L42.0231 30.858C42.2601 31.5163 42.21 32.2285 41.8896 32.7632C41.4203 33.5452 40.6105 34.0079 39.7747 33.9678C39.1864 33.9395 38.6269 33.6918 38.2101 33.2795C37.6478 32.7027 37.4557 31.8697 37.71 31.1051L38.261 29.4492C38.3416 29.207 38.301 28.94 38.1519 28.7324C38.0028 28.5248 37.7631 28.402 37.508 28.4023L29.5712 28.4023V20.4473C29.5713 20.3827 29.5633 20.3191 29.5483 20.2578C29.5463 20.2493 29.5417 20.2418 29.5394 20.2334C29.5248 20.1812 29.5071 20.1299 29.4824 20.0819C29.4757 20.0689 29.4655 20.0582 29.4582 20.0457C29.4338 20.0043 29.4089 19.9632 29.3773 19.9266C29.3625 19.9095 29.3433 19.8962 29.3269 19.8803C29.2993 19.8534 29.2736 19.8248 29.2419 19.802L29.239 19.8008C29.2371 19.7995 29.2359 19.7975 29.234 19.7962C29.1354 19.7271 29.0237 19.6849 28.9085 19.6656C28.9028 19.6646 28.898 19.6623 28.8923 19.6614C28.776 19.6444 28.6568 19.6555 28.5421 19.6914C28.5371 19.6929 28.5317 19.691 28.5266 19.6927L26.9962 20.2044C26.6744 20.3119 26.3436 20.3495 26.0262 20.3253C25.7368 20.2918 25.4593 20.2108 25.22 20.0665C24.4517 19.6043 23.9998 18.8102 24.023 17.9873C24.0255 17.9104 24.0357 17.8349 24.0454 17.7592C24.0544 17.6896 24.0597 17.6193 24.0747 17.5511C24.092 17.4721 24.1194 17.3964 24.1446 17.3199C24.1663 17.2537 24.1836 17.1861 24.2109 17.122C24.2453 17.0416 24.2906 16.9666 24.3337 16.8902C24.3641 16.8362 24.389 16.7794 24.4234 16.7277C24.5069 16.6032 24.6012 16.4849 24.7081 16.3762C24.7708 16.3139 24.8371 16.255 24.9062 16.2001C25.4405 15.7744 26.2338 15.6632 26.975 15.9106L28.5262 16.4295C28.7682 16.5105 29.0346 16.4698 29.2417 16.3204C29.4458 16.1702 29.5711 15.931 29.5711 15.6749V7.71999L49.4123 7.71999L49.4126 14.5708Z" fill="#E73432" stroke="#E73432" stroke-width="0.7"/>
</svg>
