<svg width="24" height="14" viewBox="0 0 24 14" fill="none" xmlns="http://www.w3.org/2000/svg">
<path fill-rule="evenodd" clip-rule="evenodd" d="M7.80901 12.9909C7.31197 13.4878 6.50613 13.4878 6.00909 12.9909L0.91893 7.90069L0.918182 7.89995C0.796158 7.77792 0.704091 7.63728 0.641982 7.48716C0.579755 7.33711 0.54541 7.17256 0.54541 6.99999C0.54541 6.82811 0.579486 6.66418 0.641244 6.5146C0.67186 6.44028 0.70981 6.36828 0.755096 6.2997C0.801693 6.22912 0.856055 6.16217 0.918182 6.10003L0.91893 6.09929L6.00909 1.00913C6.50613 0.512095 7.31197 0.512095 7.80901 1.00913C8.30603 1.50616 8.30603 2.312 7.80901 2.80904L4.89077 5.72726H22.1818C22.8847 5.72726 23.4545 6.29709 23.4545 6.99999C23.4545 7.70289 22.8847 8.27272 22.1818 8.27272H4.89077L7.80901 11.1909C8.30603 11.688 8.30603 12.4938 7.80901 12.9909Z" fill="#17428C"/>
</svg>
