<svg width="25" height="26" viewBox="0 0 25 26" fill="none" xmlns="http://www.w3.org/2000/svg">
<path fill-rule="evenodd" clip-rule="evenodd" d="M4.99984 7.99976C4.99984 3.85775 8.35759 0.5 12.4996 0.5C16.6416 0.5 19.9993 3.85775 19.9993 7.99976C19.9993 9.87739 19.3094 11.5939 18.1691 12.9094C19.3292 13.4544 20.4005 14.1682 21.3381 15.0337C23.6823 17.1976 24.9992 20.1323 24.9992 23.1924C24.9992 24.4669 23.8799 25.5 22.4993 25.5C21.1186 25.5 19.9993 24.4669 19.9993 23.1924C19.9993 21.3564 19.2092 19.5955 17.8027 18.2972C16.3962 16.9989 14.4887 16.2696 12.4996 16.2696C10.5105 16.2696 8.60294 16.9989 7.19646 18.2972C5.78999 19.5955 4.99984 21.3564 4.99984 23.1924C4.99984 24.4669 3.88059 25.5 2.49992 25.5C1.11925 25.5 0 24.4669 0 23.1924C0 20.1323 1.31692 17.1976 3.66105 15.0337C4.59869 14.1682 5.66996 13.4544 6.8301 12.9094C5.68984 11.5939 4.99984 9.87738 4.99984 7.99976ZM15.8328 7.99976C15.8328 9.84064 14.3405 11.333 12.4996 11.333C10.6587 11.333 9.16639 9.84064 9.16639 7.99976C9.16639 6.15887 10.6587 4.66653 12.4996 4.66653C14.3405 4.66653 15.8328 6.15887 15.8328 7.99976Z" fill="#3F3D56"/>
</svg>
