<svg width="25" height="25" viewBox="0 0 25 25" fill="none" xmlns="http://www.w3.org/2000/svg">
<path d="M21.4286 17.8571C23.401 17.8571 25 19.4561 25 21.4286C25 23.401 23.401 25 21.4286 25C19.4561 25 17.8572 23.401 17.8572 21.4286C17.8572 19.4561 19.4561 17.8571 21.4286 17.8571Z" fill="#3F3D56"/>
<path fill-rule="evenodd" clip-rule="evenodd" d="M11.8137 24.1667C10.3518 24.1667 9.16667 22.9815 9.16667 21.5196C9.16667 19.8974 9.48619 18.2911 10.107 16.7923C10.7278 15.2936 11.6377 13.9318 12.7848 12.7848C13.9318 11.6377 15.2936 10.7278 16.7923 10.107C18.2911 9.48618 19.8974 9.16667 21.5196 9.16667C22.9815 9.16667 24.1667 10.3518 24.1667 11.8137C24.1667 13.2757 22.9815 14.4608 21.5196 14.4608C20.5926 14.4608 19.6747 14.6434 18.8183 14.9981C17.9619 15.3528 17.1837 15.8728 16.5283 16.5283C15.8728 17.1837 15.3528 17.9619 14.9981 18.8183C14.6434 19.6747 14.4608 20.5926 14.4608 21.5196C14.4608 22.9815 13.2757 24.1667 11.8137 24.1667Z" fill="#3F3D56"/>
<path fill-rule="evenodd" clip-rule="evenodd" d="M2.68519 24.1667C1.2022 24.1667 6.48235e-08 22.9645 0 21.4815C-1.23309e-07 18.6605 0.555634 15.8671 1.63518 13.2609C2.71473 10.6546 4.29704 8.28652 6.29178 6.29178C8.28652 4.29704 10.6546 2.71473 13.2609 1.63518C15.8671 0.555634 18.6605 1.23309e-07 21.4815 0C22.9645 -6.48234e-08 24.1667 1.2022 24.1667 2.68518C24.1667 4.16817 22.9645 5.37037 21.4815 5.37037C19.3657 5.37037 17.2707 5.7871 15.316 6.59675C13.3613 7.40642 11.5853 8.59315 10.0892 10.0892C8.59315 11.5853 7.40641 13.3613 6.59676 15.316C5.7871 17.2707 5.37037 19.3657 5.37037 21.4815C5.37037 22.9645 4.16817 24.1667 2.68519 24.1667Z" fill="#3F3D56"/>
</svg>
