<svg width="36" height="51" viewBox="0 0 36 51" fill="none" xmlns="http://www.w3.org/2000/svg">
<path d="M30.4067 24.1757C30.4067 17.3429 24.8311 11.7673 17.9983 11.7673C11.1654 11.7673 5.58984 17.3429 5.58984 24.1757C5.58984 25.1597 5.69918 26.1436 5.97249 27.1275C6.30046 28.7127 6.90176 29.6966 7.7217 31.0632C7.88568 31.3912 8.10432 31.7192 8.32297 32.1018C8.59628 32.5391 8.81495 32.9764 9.08826 33.359C10.1815 35.1629 10.8375 36.2015 10.8375 38.3334V43.4716C10.8375 44.7835 11.7667 45.8221 13.024 46.0408C13.5706 48.8286 15.2105 50.5777 17.9983 50.5777C20.786 50.5777 22.4806 48.8286 22.9725 46.0408C24.2298 45.8221 25.159 44.7288 25.159 43.4716V38.3334C25.159 36.2015 25.815 35.1082 26.9082 33.359C27.1269 32.9764 27.4002 32.5391 27.6735 32.1018C27.8922 31.7192 28.1108 31.3912 28.2748 31.0632C29.0947 29.6966 29.696 28.7127 30.024 27.1275C30.2973 26.1436 30.4067 25.1597 30.4067 24.1757ZM23.0272 39.6452H13.0786V38.388C13.0786 38.1147 13.0786 37.896 13.024 37.6774H23.0272C23.0272 37.896 22.9725 38.1147 22.9725 38.388V39.6452H23.0272ZM22.5352 43.9636H13.4613C13.188 43.9636 13.024 43.7449 13.024 43.5263V41.8317H22.9725V43.5263C23.0272 43.7449 22.8085 43.9636 22.5352 43.9636ZM17.9983 48.4459C17.397 48.4459 15.8664 48.4459 15.2651 46.1501H20.786C20.1847 48.4459 18.5995 48.4459 17.9983 48.4459ZM27.8922 26.6902C27.6188 27.8928 27.1816 28.7127 26.4163 29.97C26.1976 30.2979 26.0336 30.6259 25.815 31.0086C25.5417 31.4459 25.323 31.8831 25.1044 32.2111C24.4484 33.3044 23.8471 34.2883 23.4645 35.4362H12.6413C12.2587 34.2883 11.7121 33.3044 11.0015 32.2111C10.7828 31.8285 10.5095 31.4459 10.2908 31.0086C10.0722 30.6259 9.85352 30.2433 9.68954 29.97C8.92426 28.6581 8.48695 27.8928 8.21364 26.6356C7.99499 25.8156 7.88568 24.9957 7.88568 24.1757C7.88568 18.5455 12.4773 13.9538 18.1076 13.9538C23.7378 13.9538 28.3295 18.5455 28.3295 24.1757C28.2202 24.9957 28.1108 25.8156 27.8922 26.6902Z" fill="#E73432" stroke="#E73432" stroke-width="0.5"/>
<path d="M30.6831 12.5871C30.9564 12.5871 31.2297 12.4778 31.4484 12.2591L34.6735 9.03406C35.1108 8.59676 35.1108 7.94081 34.6735 7.50351C34.2362 7.06621 33.5802 7.06621 33.1429 7.50351L29.9178 10.7286C29.4805 11.1659 29.4805 11.8218 29.9178 12.2591C30.1365 12.4778 30.4098 12.5871 30.6831 12.5871Z" fill="#E73432" stroke="#E73432" stroke-width="0.5"/>
<path d="M18.0005 7.28477C18.6018 7.28477 19.0937 6.7928 19.0937 6.19152V1.65453C19.0937 1.05324 18.6018 0.561279 18.0005 0.561279C17.3992 0.561279 16.9072 1.05324 16.9072 1.65453V6.19152C16.9072 6.7928 17.3992 7.28477 18.0005 7.28477Z" fill="#E73432" stroke="#E73432" stroke-width="0.5"/>
<path d="M4.55308 12.2591C4.77173 12.4778 5.04502 12.5871 5.31834 12.5871C5.59165 12.5871 5.86497 12.4778 6.08362 12.2591C6.52093 11.8218 6.52093 11.1659 6.08362 10.7286L2.85852 7.50351C2.42122 7.06621 1.76528 7.06621 1.32798 7.50351C0.890675 7.94081 0.890675 8.59676 1.32798 9.03406L4.55308 12.2591Z" fill="#E73432" stroke="#E73432" stroke-width="0.5"/>
</svg>
