<svg width="44" height="39" viewBox="0 0 44 39" fill="none" xmlns="http://www.w3.org/2000/svg">
<circle cx="16.3659" cy="16.3659" r="14.3415" fill="white"/>
<path d="M16.3659 1C7.89312 1 1 7.89312 1 16.3659C1 24.8386 7.89312 31.7317 16.3659 31.7317C24.8386 31.7317 31.7317 24.8386 31.7317 16.3659C31.7317 7.89312 24.8386 1 16.3659 1ZM16.3659 30.0244C8.83454 30.0244 2.70732 23.8972 2.70732 16.3659C2.70732 8.83454 8.83454 2.70732 16.3659 2.70732C23.8972 2.70732 30.0244 8.83454 30.0244 16.3659C30.0244 23.8972 23.8972 30.0244 16.3659 30.0244Z" fill="#E73432" stroke="#E73432" stroke-width="0.5"/>
<path d="M22.4288 15.4377C23.5005 15.4377 24.3694 14.5689 24.3694 13.4972C24.3694 12.4254 23.5005 11.5566 22.4288 11.5566C21.3571 11.5566 20.4883 12.4254 20.4883 13.4972C20.4883 14.5689 21.3571 15.4377 22.4288 15.4377Z" fill="#E73432"/>
<path d="M10.2999 15.4377C11.3716 15.4377 12.2404 14.5689 12.2404 13.4972C12.2404 12.4254 11.3716 11.5566 10.2999 11.5566C9.22818 11.5566 8.35938 12.4254 8.35938 13.4972C8.35938 14.5689 9.22818 15.4377 10.2999 15.4377Z" fill="#E73432"/>
<path d="M9.73499 21.72C9.38294 22.0338 9.35187 22.5734 9.66567 22.9254C9.97948 23.2778 10.519 23.3085 10.871 22.9947C13.9527 20.2476 18.781 20.2476 21.8627 22.9947C22.0256 23.1398 22.2285 23.2112 22.4306 23.2112C22.6655 23.2112 22.8998 23.1149 23.0681 22.9257C23.3819 22.5737 23.3508 22.0342 22.9988 21.7204C19.2803 18.4051 13.4535 18.4051 9.73499 21.72Z" fill="#E73432"/>
<circle cx="27.6354" cy="23.1952" r="14.3415" fill="white"/>
<path d="M27.6354 7.82959C19.1627 7.82959 12.2695 14.7227 12.2695 23.1954C12.2695 31.6682 19.1627 38.5613 27.6354 38.5613C36.1081 38.5613 43.0012 31.6682 43.0012 23.1954C43.0012 14.7227 36.1081 7.82959 27.6354 7.82959ZM27.6354 36.854C20.1041 36.854 13.9768 30.7268 13.9768 23.1954C13.9768 15.6641 20.1041 9.53691 27.6354 9.53691C35.1667 9.53691 41.2939 15.6641 41.2939 23.1954C41.2939 30.7268 35.1667 36.854 27.6354 36.854Z" fill="#E73432" stroke="#E73432" stroke-width="0.5"/>
<path d="M33.6983 22.2673C34.7701 22.2673 35.6389 21.3985 35.6389 20.3268C35.6389 19.255 34.7701 18.3862 33.6983 18.3862C32.6266 18.3862 31.7578 19.255 31.7578 20.3268C31.7578 21.3985 32.6266 22.2673 33.6983 22.2673Z" fill="#E73432" stroke="#E73432" stroke-width="0.5"/>
<path d="M21.5694 22.2673C22.6412 22.2673 23.51 21.3985 23.51 20.3268C23.51 19.255 22.6412 18.3862 21.5694 18.3862C20.4977 18.3862 19.6289 19.255 19.6289 20.3268C19.6289 21.3985 20.4977 22.2673 21.5694 22.2673Z" fill="#E73432" stroke="#E73432" stroke-width="0.5"/>
<path d="M34.2689 29.2619C34.621 28.9481 34.652 28.4086 34.3382 28.0565C34.0244 27.7041 33.4849 27.6734 33.1329 27.9872C30.0512 30.7343 25.2229 30.7343 22.1412 27.9872C21.9783 27.8421 21.7755 27.7707 21.5733 27.7707C21.3384 27.7707 21.1041 27.867 20.9358 28.0562C20.622 28.4082 20.6531 28.9477 21.0051 29.2616C24.7236 32.5768 30.5504 32.5768 34.2689 29.2619Z" fill="#E73432" stroke="#E73432" stroke-width="0.5"/>
</svg>
