<svg width="28" height="28" viewBox="0 0 28 28" fill="none" xmlns="http://www.w3.org/2000/svg">
<path d="M27.9999 12.328C28.0042 13.3962 27.797 14.4548 27.3902 15.4433C26.9834 16.4317 26.385 17.3305 25.6292 18.0884C24.8735 18.8463 23.9751 19.4483 22.9856 19.86C21.9961 20.2717 20.9348 20.4851 19.8624 20.4879H19.3888C19.1033 20.4879 18.8295 20.3749 18.6276 20.1739C18.4258 19.9728 18.3124 19.7 18.3124 19.4156C18.3124 19.1313 18.4258 18.8585 18.6276 18.6574C18.8295 18.4563 19.1033 18.3434 19.3888 18.3434H19.8624C20.6483 18.3434 21.4265 18.1892 22.1526 17.8896C22.8788 17.59 23.5385 17.1508 24.0942 16.5972C24.65 16.0436 25.0908 15.3864 25.3916 14.6631C25.6923 13.9397 25.8471 13.1645 25.8471 12.3816V11.9634C25.7489 10.7621 25.2836 9.61972 24.5138 8.68993C23.744 7.76013 22.7067 7.0876 21.5416 6.76289C21.3955 6.72273 21.2596 6.65231 21.1427 6.55622C21.0259 6.46014 20.9307 6.34056 20.8634 6.20531C20.1803 4.77437 19.0282 3.61801 17.5969 2.92684C16.1656 2.23566 14.5406 2.05094 12.9898 2.40313C11.439 2.75531 10.0549 3.62337 9.06577 4.86422C8.07662 6.10506 7.54142 7.64462 7.5484 9.2291C7.5484 9.37922 7.5484 9.52934 7.5484 9.67945C7.56619 9.83997 7.54736 10.0024 7.4933 10.1547C7.43925 10.3069 7.35138 10.445 7.23624 10.5587C7.12114 10.6715 6.98204 10.757 6.82926 10.809C6.67647 10.861 6.5139 10.878 6.3536 10.8589L5.9338 10.8375C5.31464 10.8359 4.70468 10.9868 4.1582 11.2768C3.61172 11.5668 3.14566 11.9868 2.80149 12.4995C2.33927 13.1887 2.11623 14.0097 2.16641 14.8371C2.28128 15.8168 2.7584 16.7187 3.50469 17.367C4.25098 18.0153 5.21293 18.3634 6.2029 18.3434H8.62479C8.91027 18.3434 9.18406 18.4563 9.38592 18.6574C9.58778 18.8585 9.70119 19.1313 9.70119 19.4156C9.70119 19.7 9.58778 19.9728 9.38592 20.1739C9.18406 20.3749 8.91027 20.4879 8.62479 20.4879H6.2029C4.66395 20.5215 3.16946 19.9726 2.02084 18.9517C0.872214 17.9309 0.15492 16.5141 0.0136179 14.9872C-0.0912752 13.4459 0.412904 11.9248 1.41849 10.7488C2.42408 9.57274 3.85138 8.83496 5.3956 8.69297C5.48833 6.6968 6.23705 4.7863 7.52653 3.25554C8.81601 1.72479 10.5748 0.658611 12.5321 0.221118C14.4894 -0.216375 16.5369 -0.000936313 18.3593 0.834276C20.1816 1.66949 21.678 3.07818 22.618 4.84353C24.0968 5.36363 25.3924 6.29996 26.3477 7.53898C27.303 8.77801 27.877 10.2665 27.9999 11.824V12.328ZM16.4717 22.9434L15.0832 24.3374V11.9098C15.0832 11.6254 14.9698 11.3527 14.7679 11.1516C14.566 10.9505 14.2923 10.8375 14.0068 10.8375C13.7213 10.8375 13.4475 10.9505 13.2456 11.1516C13.0438 11.3527 12.9304 11.6254 12.9304 11.9098V24.3374L11.5418 22.9434C11.4415 22.8434 11.3223 22.7641 11.1912 22.71C11.0601 22.6559 10.9195 22.6281 10.7776 22.6281C10.6357 22.6281 10.4951 22.6559 10.364 22.71C10.2329 22.7641 10.1137 22.8434 10.0133 22.9434C9.91298 23.0434 9.83337 23.1621 9.77906 23.2927C9.72474 23.4233 9.69679 23.5633 9.69679 23.7047C9.69679 23.8461 9.72474 23.9861 9.77906 24.1167C9.83337 24.2474 9.91298 24.366 10.0133 24.466L13.2425 27.6828C13.3426 27.7833 13.4617 27.8631 13.5928 27.9175C13.724 27.972 13.8647 28 14.0068 28C14.1489 28 14.2896 27.972 14.4207 27.9175C14.5519 27.8631 14.671 27.7833 14.771 27.6828L18.0002 24.466C18.2029 24.2641 18.3168 23.9903 18.3168 23.7047C18.3168 23.4192 18.2029 23.1453 18.0002 22.9434C17.7975 22.7415 17.5226 22.6281 17.236 22.6281C16.9493 22.6281 16.6744 22.7415 16.4717 22.9434Z" fill="white"/>
</svg>
