<svg width="32" height="56" viewBox="0 0 32 56" fill="none" xmlns="http://www.w3.org/2000/svg">
<path d="M9.95589 8.07926C9.31715 8.07926 8.78691 7.57461 8.7607 6.93039L8.57176 2.24471C8.54555 1.58464 9.05934 1.02758 9.71941 1.00076C10.3911 0.977598 10.9372 1.48773 10.964 2.14841L11.1529 6.83409C11.1797 7.49477 10.6659 8.05183 10.0053 8.07865C9.99657 8.07865 9.98803 8.07881 9.97966 8.07896L9.95589 8.07926Z" fill="#E73432"/>
<path d="M4.34127 8.22255C4.57043 8.57544 4.9538 8.76682 5.34508 8.76682C5.56876 8.76682 5.79549 8.70404 5.99722 8.57178C6.55124 8.21158 6.70788 7.46984 6.34707 6.91582C6.13436 6.58975 4.23339 3.70021 2.93154 2.68725C2.40982 2.28134 1.65834 2.37581 1.25181 2.89752C0.846507 3.41924 0.940368 4.17134 1.46208 4.57725C2.20565 5.15504 3.62269 7.12 4.34127 8.22255Z" fill="#E73432"/>
<path d="M7.22748 41.5733C7.24942 41.5746 7.27137 41.5746 7.29331 41.5746C7.92473 41.5746 8.45254 41.0809 8.48667 40.4434C8.52385 39.7681 9.38382 23.8466 8.85053 19.8466L8.84976 19.8408C8.63524 18.2286 8.06815 13.9666 9.24852 12.6182C9.42039 12.4213 9.69953 12.1958 10.331 12.1958C12.1496 12.1958 12.3282 15.4291 12.3819 19.9965C12.3892 20.6389 12.3971 21.2831 12.4135 21.9158C12.5426 26.9124 12.8453 30.4482 12.8546 30.5565L12.8548 30.5588C12.9127 31.2171 13.4942 31.7046 14.1518 31.6461C14.81 31.5888 15.297 31.008 15.2397 30.3498L15.2381 30.3306C15.2183 30.0928 15.0183 27.6916 14.8805 24.131C15.1 23.7014 15.6366 22.9724 16.6731 23.2139C17.0082 23.3964 17.4358 24.4399 17.7893 26.0981C17.7929 26.1178 17.7971 26.1374 17.8017 26.1568C18.1239 27.6891 18.3822 29.7348 18.4485 32.1044C18.4662 32.7535 18.9989 33.2679 19.6443 33.2679C19.6553 33.2679 19.6669 33.2679 19.6791 33.2685C20.3397 33.2496 20.8596 32.6993 20.8419 32.0392L20.8419 32.0371C20.838 31.9095 20.7671 29.561 20.397 27.1006C20.3539 26.8144 20.3088 26.5389 20.2616 26.2739C20.5046 26.105 20.9095 25.9026 21.5093 25.8347C21.9086 26.042 22.4339 27.1845 22.8694 28.6402C22.8836 28.7152 22.9052 28.7894 22.9342 28.8617C23.366 30.3677 23.6943 32.1635 23.6943 33.6013C23.6943 34.262 24.2307 34.7983 24.8913 34.7983C25.552 34.7983 26.0884 34.262 26.0884 33.6013C26.0884 32.698 25.8842 30.9052 25.4511 29.0816C25.644 29.0412 25.8299 29.0523 25.9413 29.1849C26.7257 30.1199 28.2366 35.0762 28.5663 36.9174C28.7461 37.9212 28.314 40.077 27.8959 42.1614C27.7173 43.0506 27.5333 43.9703 27.3833 44.8571C26.8841 47.812 25.8245 52.3508 25.7619 52.6189L25.7591 52.631C25.6079 53.2734 26.0065 53.9182 26.6501 54.0694C26.7422 54.0907 26.8342 54.1017 26.925 54.1017C27.4681 54.1017 27.9593 53.7293 28.0897 53.1789L28.0909 53.1739C28.1526 52.9106 29.2245 48.338 29.7445 45.2563C29.8883 44.4055 30.0687 43.5047 30.2436 42.6325C30.7477 40.1178 31.1828 37.9462 30.922 36.495C30.6837 35.1652 29.1447 29.2788 27.7758 27.6466C26.9602 26.6747 25.8154 26.5061 24.7629 26.7786C24.3441 25.6626 23.8211 24.6942 23.1866 24.1202C22.4802 23.4803 21.7799 23.4016 21.318 23.448C20.6704 23.5127 20.1289 23.6704 19.6829 23.8671C19.1026 22.0899 18.3167 21.1459 17.2539 20.8949C16.2847 20.6658 15.4645 20.7796 14.7905 21.074C14.7845 20.7077 14.7802 20.3394 14.7759 19.9715L14.7759 19.9679C14.7198 15.2025 14.6563 9.80176 10.3316 9.80176C9.15527 9.80176 8.15816 10.2302 7.44812 11.0408C5.78119 12.9448 5.99694 16.5499 6.47843 20.1629C6.6163 21.1967 6.65093 23.1601 6.6283 25.4708C6.58501 25.4403 6.54298 25.4119 6.50246 25.3854C5.50839 24.735 4.33393 24.5156 3.43921 24.8143C2.75415 25.0428 2.22573 25.5097 1.91063 26.1649C1.46206 27.0992 1.49131 28.317 1.99535 29.6858C2.4616 30.9523 2.68528 37.6993 2.53413 42.129C2.39029 46.36 6.00817 51.3931 8.74169 54.8098C8.97817 55.1054 9.32557 55.259 9.67724 55.259C9.93931 55.259 10.2038 55.1737 10.4239 54.9976C10.9401 54.5843 11.0242 53.831 10.611 53.3148C6.75173 48.492 4.83919 44.7552 4.92634 42.2113C5.01837 39.5149 5.02752 30.9938 4.24068 28.8588C3.93045 28.0159 3.953 27.4393 4.06758 27.2016C4.10415 27.1266 4.13828 27.1047 4.19314 27.0864C4.29858 27.0559 4.74411 27.0797 5.23718 27.4186C5.74548 27.769 6.38056 28.5004 6.51648 29.993C6.51946 30.026 6.52376 30.0585 6.52931 30.0905C6.37433 35.1949 6.10258 40.2223 6.09751 40.3129C6.06155 40.973 6.56742 41.5368 7.22748 41.5733Z" fill="#E73432"/>
<path d="M13.3342 9.20861C13.5006 9.28845 13.6762 9.32624 13.8492 9.32624C14.2954 9.32624 14.7245 9.07513 14.9299 8.64545C15.3437 7.77938 16.6845 5.33231 17.8919 4.42175C18.4197 4.02376 18.5252 3.27349 18.1272 2.74568C17.7298 2.21787 16.9795 2.11182 16.4511 2.51042C14.5605 3.93538 12.9478 7.2412 12.7699 7.6136C12.4852 8.20967 12.7376 8.92398 13.3342 9.20861Z" fill="#E73432"/>
<path d="M9.95589 8.07926C9.31715 8.07926 8.78691 7.57461 8.7607 6.93039L8.57176 2.24471C8.54555 1.58464 9.05934 1.02758 9.71941 1.00076C10.3911 0.977598 10.9372 1.48773 10.964 2.14841L11.1529 6.83409C11.1797 7.49477 10.6659 8.05183 10.0053 8.07865C9.99657 8.07865 9.98803 8.07881 9.97966 8.07896L9.95589 8.07926Z" stroke="white" stroke-width="0.3"/>
<path d="M4.34127 8.22255C4.57043 8.57544 4.9538 8.76682 5.34508 8.76682C5.56876 8.76682 5.79549 8.70404 5.99722 8.57178C6.55124 8.21158 6.70788 7.46984 6.34707 6.91582C6.13436 6.58975 4.23339 3.70021 2.93154 2.68725C2.40982 2.28134 1.65834 2.37581 1.25181 2.89752C0.846507 3.41924 0.940368 4.17134 1.46208 4.57725C2.20565 5.15504 3.62269 7.12 4.34127 8.22255Z" stroke="white" stroke-width="0.3"/>
<path d="M7.22748 41.5733C7.24942 41.5746 7.27137 41.5746 7.29331 41.5746C7.92473 41.5746 8.45254 41.0809 8.48667 40.4434C8.52385 39.7681 9.38382 23.8466 8.85053 19.8466L8.84976 19.8408C8.63524 18.2286 8.06815 13.9666 9.24852 12.6182C9.42039 12.4213 9.69953 12.1958 10.331 12.1958C12.1496 12.1958 12.3282 15.4291 12.3819 19.9965C12.3892 20.6389 12.3971 21.2831 12.4135 21.9158C12.5426 26.9124 12.8453 30.4482 12.8546 30.5565L12.8548 30.5588C12.9127 31.2171 13.4942 31.7046 14.1518 31.6461C14.81 31.5888 15.297 31.008 15.2397 30.3498L15.2381 30.3306C15.2183 30.0928 15.0183 27.6916 14.8805 24.131C15.1 23.7014 15.6366 22.9724 16.6731 23.2139C17.0082 23.3964 17.4358 24.4399 17.7893 26.0981C17.7929 26.1178 17.7971 26.1374 17.8017 26.1568C18.1239 27.6891 18.3822 29.7348 18.4485 32.1044C18.4662 32.7535 18.9989 33.2679 19.6443 33.2679C19.6553 33.2679 19.6669 33.2679 19.6791 33.2685C20.3397 33.2496 20.8596 32.6993 20.8419 32.0392L20.8419 32.0371C20.838 31.9095 20.7671 29.561 20.397 27.1006C20.3539 26.8144 20.3088 26.5389 20.2616 26.2739C20.5046 26.105 20.9095 25.9026 21.5093 25.8347C21.9086 26.042 22.4339 27.1845 22.8694 28.6402C22.8836 28.7152 22.9052 28.7894 22.9342 28.8617C23.366 30.3677 23.6943 32.1635 23.6943 33.6013C23.6943 34.262 24.2307 34.7983 24.8913 34.7983C25.552 34.7983 26.0884 34.262 26.0884 33.6013C26.0884 32.698 25.8842 30.9052 25.4511 29.0816C25.644 29.0412 25.8299 29.0523 25.9413 29.1849C26.7257 30.1199 28.2366 35.0762 28.5663 36.9174C28.7461 37.9212 28.314 40.077 27.8959 42.1614C27.7173 43.0506 27.5333 43.9703 27.3833 44.8571C26.8841 47.812 25.8245 52.3508 25.7619 52.6189L25.7591 52.631C25.6079 53.2734 26.0065 53.9182 26.6501 54.0694C26.7422 54.0907 26.8342 54.1017 26.925 54.1017C27.4681 54.1017 27.9593 53.7293 28.0897 53.1789L28.0909 53.1739C28.1526 52.9106 29.2245 48.338 29.7445 45.2563C29.8883 44.4055 30.0687 43.5047 30.2436 42.6325C30.7477 40.1178 31.1828 37.9462 30.922 36.495C30.6837 35.1652 29.1447 29.2788 27.7758 27.6466C26.9602 26.6747 25.8154 26.5061 24.7629 26.7786C24.3441 25.6626 23.8211 24.6942 23.1866 24.1202C22.4802 23.4803 21.7799 23.4016 21.318 23.448C20.6704 23.5127 20.1289 23.6704 19.6829 23.8671C19.1026 22.0899 18.3167 21.1459 17.2539 20.8949C16.2847 20.6658 15.4645 20.7796 14.7905 21.074C14.7845 20.7077 14.7802 20.3394 14.7759 19.9715L14.7759 19.9679C14.7198 15.2025 14.6563 9.80176 10.3316 9.80176C9.15527 9.80176 8.15816 10.2302 7.44812 11.0408C5.78119 12.9448 5.99694 16.5499 6.47843 20.1629C6.6163 21.1967 6.65093 23.1601 6.6283 25.4708C6.58501 25.4403 6.54298 25.4119 6.50246 25.3854C5.50839 24.735 4.33393 24.5156 3.43921 24.8143C2.75415 25.0428 2.22573 25.5097 1.91063 26.1649C1.46206 27.0992 1.49131 28.317 1.99535 29.6858C2.4616 30.9523 2.68528 37.6993 2.53413 42.129C2.39029 46.36 6.00817 51.3931 8.74169 54.8098C8.97817 55.1054 9.32557 55.259 9.67724 55.259C9.93931 55.259 10.2038 55.1737 10.4239 54.9976C10.9401 54.5843 11.0242 53.831 10.611 53.3148C6.75173 48.492 4.83919 44.7552 4.92634 42.2113C5.01837 39.5149 5.02752 30.9938 4.24068 28.8588C3.93045 28.0159 3.953 27.4393 4.06758 27.2016C4.10415 27.1266 4.13828 27.1047 4.19314 27.0864C4.29858 27.0559 4.74411 27.0797 5.23718 27.4186C5.74548 27.769 6.38056 28.5004 6.51648 29.993C6.51946 30.026 6.52376 30.0585 6.52931 30.0905C6.37433 35.1949 6.10258 40.2223 6.09751 40.3129C6.06155 40.973 6.56742 41.5368 7.22748 41.5733Z" stroke="white" stroke-width="0.3"/>
<path d="M13.3342 9.20861C13.5006 9.28845 13.6762 9.32624 13.8492 9.32624C14.2954 9.32624 14.7245 9.07513 14.9299 8.64545C15.3437 7.77938 16.6845 5.33231 17.8919 4.42175C18.4197 4.02376 18.5252 3.27349 18.1272 2.74568C17.7298 2.21787 16.9795 2.11182 16.4511 2.51042C14.5605 3.93538 12.9478 7.2412 12.7699 7.6136C12.4852 8.20967 12.7376 8.92398 13.3342 9.20861Z" stroke="white" stroke-width="0.3"/>
</svg>
