<svg width="25" height="25" viewBox="0 0 25 25" fill="none" xmlns="http://www.w3.org/2000/svg">
<path fill-rule="evenodd" clip-rule="evenodd" d="M12.5 20.8333C17.1024 20.8333 20.8333 17.1024 20.8333 12.5C20.8333 7.89763 17.1024 4.16667 12.5 4.16667C7.89763 4.16667 4.16667 7.89763 4.16667 12.5C4.16667 17.1024 7.89763 20.8333 12.5 20.8333ZM12.5 25C19.4036 25 25 19.4036 25 12.5C25 5.59644 19.4036 0 12.5 0C5.59644 0 0 5.59644 0 12.5C0 19.4036 5.59644 25 12.5 25ZM12.5 5.83333C13.4205 5.83333 14.1667 6.57953 14.1667 7.5V11.7858L16.7364 13.2542C17.6184 13.7581 17.9631 14.8146 17.5064 15.6138C17.0497 16.413 15.9646 16.6523 15.0826 16.1483L11.839 14.2948C11.2815 13.9762 10.9386 13.4369 10.8772 12.8813C10.8485 12.7589 10.8333 12.6312 10.8333 12.5V7.5C10.8333 6.57953 11.5795 5.83333 12.5 5.83333Z" fill="#3F3D56"/>
</svg>
