<svg width="42" height="50" viewBox="0 0 42 50" fill="none" xmlns="http://www.w3.org/2000/svg">
<path d="M15.912 43.7487C17.361 44.3057 17.613 44.8628 17.676 44.9866L17.55 47.4004C17.487 47.9575 17.928 48.4526 18.558 48.5145H18.621C19.188 48.5145 19.629 48.0813 19.692 47.5242L19.881 45.0485C19.881 44.8628 19.944 42.9441 16.731 41.7681C12.636 40.2826 10.809 37.4974 10.809 37.4974C10.809 37.4355 10.746 37.4355 10.746 37.3736L2.36704 27.6562C2.24104 27.2848 1.92604 25.9232 3.37504 24.9329C4.95003 23.8188 6.71402 25.428 6.84002 25.4899L10.809 28.8941C10.935 28.956 11.754 29.5749 12.762 29.4511C12.573 30.0082 11.943 30.2558 11.943 30.2558C11.376 30.4414 11.061 30.9985 11.25 31.5555C11.376 31.9888 11.817 32.2983 12.258 32.2983C12.384 32.2983 12.447 32.2983 12.573 32.2364C13.392 31.9888 14.778 31.1223 14.904 29.3892L15.282 25.2423V25.1804C15.282 25.1185 15.345 19.5481 16.605 13.2968C19.377 17.0723 19.377 20.8478 19.377 21.0954C19.377 21.6525 19.818 22.1476 20.448 22.1476C21.015 22.1476 21.519 21.7144 21.519 21.0954C21.519 20.7859 21.519 13.173 14.211 8.09765C14.085 7.97386 13.455 7.41681 13.896 6.4265C14.148 5.86946 14.463 5.49809 14.841 5.3743C15.345 5.18862 15.912 5.4362 16.101 5.49809C16.164 5.55998 24.9209 10.5115 26.6849 20.3527C26.8109 20.9097 27.3149 21.2811 27.9449 21.2192C28.4489 21.1573 28.8269 20.6622 28.8269 20.167V20.1051C28.8899 18.8672 29.9609 18.0007 31.2209 18.0626C32.4809 18.1245 33.3629 19.1767 33.2999 20.4146V20.4765V20.5384L33.1739 22.4571C33.1109 23.0141 33.5519 23.5093 34.1819 23.5712C34.7489 23.6331 35.2529 23.1998 35.3159 22.5809C35.3789 21.4049 36.4499 20.4765 37.7099 20.5384C38.9699 20.6003 39.8519 21.6525 39.7889 22.8285L38.8439 37.3117C38.8439 37.3736 38.5919 40.5302 36.5759 41.5205C36.3239 41.6443 34.3709 42.6965 34.0559 44.5533V44.6152L33.6779 48.8859C33.6149 49.443 34.0559 49.9381 34.6229 50C34.6859 50 34.6859 50 34.7489 50C35.3159 50 35.7569 49.5667 35.8199 49.0716L36.1979 44.8628C36.3239 44.1819 37.2689 43.5011 37.5839 43.3773C40.7339 41.83 41.0489 37.5593 41.0489 37.4355L41.9939 22.9522C42.1199 20.6003 40.2929 18.5578 37.8989 18.434C36.9539 18.3721 36.0719 18.6197 35.3789 19.0529C34.8749 17.3818 33.3629 16.082 31.4729 15.9582C30.2129 15.8963 29.0789 16.3296 28.1969 17.1342C27.1889 14.0395 25.6139 11.5018 23.9129 9.45932C25.2359 7.29302 25.8659 5.55998 25.9289 5.25051C26.0549 4.94104 26.4329 3.82695 25.9919 2.58906C25.6139 1.66065 24.8579 0.917922 23.7869 0.422769C21.078 -0.75322 19.188 0.794134 18.558 1.78444L17.172 3.82695C17.172 3.82695 16.857 3.70316 16.731 3.64127C16.227 3.45558 15.156 3.08422 13.959 3.45558C13.266 3.70316 12.384 4.26021 11.754 5.68377C10.872 7.72628 12.069 9.27363 12.762 9.83068C13.455 10.3258 14.085 10.821 14.652 11.378C13.14 18.1864 12.951 24.4996 12.951 25.1804C12.762 27.161 12.258 27.5943 12.258 27.5943L11.754 27.161L8.10002 24.0663C7.02902 23.076 4.38303 21.6525 1.98904 23.3236C-0.467945 25.0566 -0.152946 27.5943 0.351052 28.7084C1.10705 29.6987 1.10705 29.6987 1.10705 29.6987L8.85601 38.7353C9.29701 39.1685 11.439 42.0775 15.912 43.7487ZM20.133 2.96043C20.259 2.71285 21.078 1.66065 22.6529 2.34149C23.9759 2.96043 23.9759 3.82695 23.7869 4.26021C23.7869 4.3221 23.1569 5.99324 22.149 7.85007C20.952 6.67408 19.881 5.74567 18.936 5.06483C19.377 4.13642 20.133 2.96043 20.133 2.96043Z" fill="#E73432"/>
</svg>
