<svg width="26" height="25" viewBox="0 0 26 25" fill="none" xmlns="http://www.w3.org/2000/svg">
<path fill-rule="evenodd" clip-rule="evenodd" d="M24.5106 24.0852C25.4703 23.1255 25.4703 21.5694 24.5106 20.6097L16.0908 12.1899L23.8902 4.39047C24.8499 3.43072 24.8499 1.87466 23.8902 0.914917C22.9304 -0.0448306 21.3744 -0.0448308 20.4146 0.914917L12.6152 8.71432L4.81577 0.914879C3.85602 -0.0448684 2.29996 -0.0448688 1.34021 0.914879C0.380465 1.87463 0.380464 3.43068 1.34021 4.39043L9.13966 12.1899L0.719811 20.6097C-0.239937 21.5695 -0.239937 23.1255 0.719811 24.0853C1.67956 25.045 3.23562 25.045 4.19536 24.0853L12.6152 15.6654L21.035 24.0852C21.9948 25.045 23.5508 25.045 24.5106 24.0852Z" fill="#C5284C"/>
</svg>
